<svg width="60" height="46" viewBox="0 0 60 46" fill="none" xmlns="http://www.w3.org/2000/svg">
<g clip-path="url(#clip0_536_79)">
<path d="M31.8902 0.453979H37.5047C37.9801 0.453979 38.3656 0.840765 38.3656 1.31777V6.51167C38.3656 6.98867 37.9801 7.37546 37.5047 7.37546H31.8902V0.453979Z" fill="#FF473E"/>
<path d="M31.9574 7.35685H26.6197C26.1443 7.35685 25.7588 6.97007 25.7588 6.49306V1.33635C25.7588 0.85935 26.1443 0.472565 26.6197 0.472565H31.9574V7.35685Z" fill="#65BBF2"/>
<path d="M59.9819 35.5259V21.866C59.9819 20.2652 58.9992 18.7861 57.4043 17.9863L54.3494 16.4541C53.9529 16.2552 53.5886 16.0113 53.2663 15.7288L42.324 6.13974C41.6682 5.48818 40.7207 5.11435 39.7248 5.11435H6.18904C3.34341 5.11435 1.0365 7.11978 1.0365 9.59346V35.5258C1.0365 37.9995 3.34341 40.0049 6.18904 40.0049H54.8294C57.675 40.005 59.9819 37.9997 59.9819 35.5259Z" fill="#DEE1E2"/>
<path d="M1.19998 12.8C1.19998 8.38171 4.7817 4.79999 9.19998 4.79999H29.4V26.4H1.19998V12.8Z" fill="#649CC8"/>
<path d="M55.287 39.894C55.287 35.8225 51.997 32.5217 47.9388 32.5217C43.8805 32.5217 40.5905 35.8225 40.5905 39.894M7.3486 39.894C7.3486 35.8225 10.6386 32.5217 14.6969 32.5217C18.7551 32.5217 22.0451 35.8225 22.0451 39.894" fill="#9BA5A8"/>
<path d="M42.5722 39.894C42.5722 42.8676 44.9749 45.2782 47.9388 45.2782C50.9027 45.2782 53.3054 42.8676 53.3054 39.894C53.3054 36.9204 50.9027 34.5099 47.9388 34.5099C44.9749 34.5099 42.5722 36.9204 42.5722 39.894ZM14.6969 34.5099C17.6608 34.5099 20.0635 36.9204 20.0635 39.894C20.0635 42.8676 17.6608 45.2782 14.6969 45.2782C11.733 45.2782 9.33028 42.8676 9.33028 39.894C9.33028 36.9204 11.733 34.5099 14.6969 34.5099Z" fill="#2B3B47"/>
<path d="M40.0308 8.7262H33.168C32.667 8.7262 32.2609 9.13374 32.2609 9.63629V17.7474C32.2609 18.2501 32.6671 18.6575 33.168 18.6575H48.4908C49.3089 18.6575 49.709 17.6565 49.1175 17.0894L40.6575 8.97825C40.4888 8.81653 40.2642 8.7262 40.0308 8.7262Z" fill="#649CC8"/>
<path d="M8.71572 13.3483V17.3651C8.71572 17.5076 8.83107 17.6232 8.97337 17.6232H12.799V21.4552C12.799 21.5978 12.9144 21.7133 13.0567 21.7133H17.0668C17.2091 21.7133 17.3244 21.5978 17.3244 21.4552V17.6232H21.1501C21.2924 17.6232 21.4078 17.5076 21.4078 17.3651V13.3483C21.4078 13.2057 21.2924 13.0902 21.1501 13.0902H17.3244V9.25809C17.3244 9.11554 17.2091 9 17.0668 9H13.0567C12.9144 9 12.799 9.11554 12.799 9.25809V13.0902H8.97337C8.83107 13.0902 8.71572 13.2057 8.71572 13.3483ZM1.2 26.4664H60V31.2H1.2V26.4664Z" fill="#DEE1E2"/>
<rect x="1.20001" y="26.4" width="3.6" height="4.2" fill="#2F5476"/>
<rect x="56.4" y="26.4" width="3.6" height="4.2" fill="#2F5476"/>
<path d="M45.4933 39.894C45.4933 41.2491 46.5881 42.3475 47.9388 42.3475C49.2894 42.3475 50.3843 41.2491 50.3843 39.894C50.3843 38.5389 49.2894 37.4405 47.9388 37.4405C46.5881 37.4405 45.4933 38.5389 45.4933 39.894ZM14.6969 37.4405C16.0475 37.4405 17.1424 38.5389 17.1424 39.894C17.1424 41.2491 16.0475 42.3475 14.6969 42.3475C13.3462 42.3475 12.2514 41.2491 12.2514 39.894C12.2514 38.5389 13.3462 37.4405 14.6969 37.4405Z" fill="#9BA5A8"/>
<rect x="32.4" y="24" width="4.2" height="1.8" fill="#2B3B47"/>
</g>
<defs>
<clipPath id="clip0_536_79">
<rect width="60" height="45.4545" fill="white" transform="matrix(-1 0 0 1 60 0)"/>
</clipPath>
</defs>
</svg>
