<svg width="40" height="40" viewBox="0 0 40 40" fill="none" xmlns="http://www.w3.org/2000/svg">
<path d="M0 21.5625V18.4375C0.0321805 18.3709 0.0573137 18.301 0.0749969 18.2292C0.179164 17.5 0.260417 16.7594 0.397917 16.0323C1.89271 8.10729 8.60417 1.58333 16.5687 0.303125L18.4375 0H21.5625C21.6293 0.0321722 21.699 0.0576452 21.7708 0.0760428C22.6167 0.208334 23.4719 0.298959 24.3104 0.472918C32.0833 2.08333 38.4375 8.72292 39.6958 16.5333C39.7979 17.1674 39.8993 17.8021 40 18.4375V21.5625C39.9417 21.875 39.8844 22.1875 39.826 22.5C39.678 22.3993 39.5367 22.289 39.4031 22.1698C36.9295 19.7017 34.4569 17.2333 31.9854 14.7646C31.8552 14.6344 31.6729 14.5562 31.5125 14.4521C31.4323 14.3479 31.349 14.25 31.2708 14.1479C29.8365 12.2781 27.9688 11.0667 25.6719 10.5708C23.7969 10.1656 21.8917 10.3417 19.9969 10.3625C18.3208 10.3927 16.624 10.2583 14.9729 10.4792C8.50729 11.3302 4.80729 18.5229 7.77292 24.3271C8.50208 25.7479 9.52916 26.8958 10.7854 27.8562C10.8792 28.0215 10.9877 28.178 11.1094 28.324C14.7948 32.017 18.4819 35.7076 22.1708 39.3958C22.2904 39.5297 22.4014 39.6709 22.5031 39.8188L21.4844 40H18.4375C18.3717 39.9659 18.3016 39.9407 18.2292 39.925C15.8333 39.7052 13.5417 39.1219 11.3906 38.0437C5.325 35 1.61042 30.1448 0.30625 23.4687C0.183334 22.8375 0.104167 22.1979 0 21.5625Z" fill="#807DD6"/>
<path d="M0 21.5625C0.104167 22.1979 0.183334 22.8375 0.30625 23.4687C1.61042 30.1448 5.325 35 11.3917 38.0437C13.5417 39.1219 15.8385 39.7052 18.2292 39.925C18.3016 39.9407 18.3717 39.9659 18.4375 40H0V21.5625Z" fill="#FEFEFE"/>
<path d="M40 18.4375C39.8993 17.8035 39.7979 17.1687 39.6958 16.5333C38.4375 8.72292 32.0833 2.08333 24.3083 0.472918C23.4698 0.298959 22.6146 0.208334 21.7688 0.0760428C21.697 0.0576452 21.6272 0.0321722 21.5604 0H39.9979L40 18.4375Z" fill="#FEFEFE"/>
<path d="M18.4375 0L16.5687 0.301043C8.60417 1.58333 1.89271 8.10729 0.397917 16.0302C0.260417 16.7594 0.184372 17.4948 0.0749969 18.2271C0.0573137 18.2989 0.0321805 18.3688 0 18.4354V0H18.4375Z" fill="#FEFEFE"/>
<path d="M21.4844 40L22.5031 39.8271C23.0531 39.7459 23.6146 39.7073 24.1531 39.5771C31.6042 37.7719 36.6042 33.2511 39.074 25.9907C39.4542 24.8719 39.5812 23.6678 39.826 22.5032C39.8844 22.1907 39.9417 21.8782 40 21.5657V40H21.4844Z" fill="#FEFEFE"/>
<path d="M39.826 22.5C39.5812 23.6646 39.4542 24.8687 39.0739 25.9875C36.6042 33.2479 31.6042 37.7687 24.1531 39.5739C23.6146 39.7041 23.0531 39.7427 22.5031 39.8239C22.4013 39.6761 22.2904 39.5349 22.1708 39.401C18.4847 35.7114 14.7976 32.0222 11.1094 28.3333C10.9876 28.1874 10.8792 28.0309 10.7854 27.8656C11.6281 28.2916 12.4406 28.8031 13.3208 29.1271C15.4864 29.9291 17.7583 29.6198 19.9969 29.6291C21.2333 29.6375 22.4687 29.6625 23.7042 29.651C25.0754 29.6418 26.4283 29.3354 27.6698 28.7531C28.9476 28.1566 30.0795 27.2879 30.9861 26.2079C31.8928 25.1278 32.5523 23.8625 32.9184 22.5007C33.2845 21.1389 33.3484 19.7135 33.1055 18.3244C32.8627 16.9353 32.3189 15.6162 31.5125 14.4594C31.6719 14.5635 31.8552 14.6385 31.9854 14.7719C34.4611 17.2378 36.9337 19.7062 39.4031 22.1771C39.537 22.2937 39.6782 22.4016 39.826 22.5V22.5Z" fill="#6863CF"/>
<path d="M31.5125 14.4584C32.3186 15.6151 32.862 16.9341 33.1047 18.323C33.3473 19.7119 33.2834 21.137 32.9173 22.4985C32.5512 23.8601 31.8918 25.1251 30.9854 26.205C30.0789 27.2849 28.9473 28.1535 27.6698 28.75C26.4283 29.3324 25.0754 29.6387 23.7042 29.648C22.4688 29.6594 21.2333 29.6344 19.9969 29.6261L20.0094 24.6594C20.0906 24.698 20.1761 24.7302 20.2542 24.775C21.3863 25.4333 22.7105 25.6816 24.0042 25.4782C26.8698 25.0615 28.9833 22.4375 28.8146 19.498C28.6479 16.5813 26.2021 14.2084 23.3167 14.1386C22.124 14.1094 21.0375 14.4407 20.0167 15.0292L20 10.3709C21.8948 10.348 23.8021 10.1719 25.675 10.5792C27.9667 11.075 29.8417 12.2865 31.274 14.1563C31.3542 14.2563 31.4323 14.3573 31.5125 14.4584Z" fill="#E7EBEF"/>
<path d="M20.0094 24.6614L20 29.6281C17.7615 29.6187 15.4896 29.9281 13.324 29.126C12.4438 28.8 11.6313 28.2927 10.7886 27.8646C9.53232 26.9041 8.49691 25.7562 7.77607 24.3354C4.81045 18.5312 8.50524 11.3385 14.9761 10.4875C16.6271 10.2708 18.324 10.401 20 10.3708C20.007 11.925 20.0146 13.4784 20.0229 15.0312C20.0178 15.0488 20.0105 15.0656 20.0011 15.0812C19.9992 15.078 19.9966 15.0753 19.9936 15.0731C19.9906 15.071 19.9871 15.0695 19.9835 15.0688C19.9798 15.0681 19.9761 15.0682 19.9724 15.0691C19.9688 15.07 19.9655 15.0716 19.9625 15.0739C19.3415 14.6182 18.6129 14.3311 17.8479 14.2406C17.4667 14.1885 17.3813 14.0437 17.4011 13.6969C17.4282 13.2083 17.4073 12.7166 17.4073 12.2146H15.6073C15.6073 12.8198 15.6157 13.4021 15.6 13.9854C15.6 14.101 15.5282 14.2771 15.4396 14.3187C14.7188 14.6573 13.9813 14.9719 13.1219 15.3531L11.724 13.8781L10.4677 15.1396C10.9261 15.5906 11.4115 16.0583 11.8802 16.5427C11.9594 16.6239 12.0292 16.801 11.9938 16.8906C11.725 17.575 11.4292 18.2448 11.1104 19H8.8469V20.7812H11.1584L12.0834 23.1052L10.5011 24.6677L11.7511 25.925C12.2584 25.3969 12.7771 24.8552 13.2302 24.3844C13.9594 24.7208 14.6 25.0396 15.2584 25.3041C15.5115 25.4083 15.6334 25.4937 15.6209 25.7854C15.5969 26.3646 15.6136 26.9458 15.6136 27.5396H17.4073V25.5604C18.3386 25.3927 19.225 25.1948 19.9667 24.6229C19.985 24.6303 20.0001 24.644 20.0094 24.6614V24.6614Z" fill="#F7F7F8"/>
<path d="M20.0094 24.6615C20.0051 24.6503 19.9986 24.6402 19.9901 24.6317C19.9817 24.6233 19.9716 24.6168 19.9604 24.6125L19.9229 24.5365C19.9597 24.4 19.9845 24.2606 19.9969 24.1198C19.9969 21.1059 19.9969 18.092 19.9969 15.0781C20.0063 15.0625 20.0136 15.0457 20.0187 15.0281C21.0396 14.4396 22.126 14.1084 23.3187 14.1375C26.2042 14.2073 28.65 16.5854 28.8167 19.4969C28.9854 22.4365 26.8719 25.0563 24.0062 25.4771C22.7126 25.6805 21.3883 25.4322 20.2562 24.774C20.176 24.7323 20.0906 24.7 20.0094 24.6615Z" fill="#434C53"/>
<path d="M19.9229 24.5365L19.9604 24.6125C19.2187 25.1875 18.3323 25.3855 17.401 25.55V27.5292H15.6073C15.6073 26.9355 15.5906 26.3542 15.6146 25.775C15.6271 25.4834 15.5104 25.3948 15.2521 25.2938C14.5937 25.0292 13.9562 24.7105 13.2239 24.374C12.7708 24.8448 12.2521 25.3865 11.7448 25.9146L10.4948 24.6573L12.0771 23.0948L11.1573 20.7709H8.84686V18.9938H11.1104C11.4292 18.2428 11.725 17.5688 11.9937 16.8844C12.0292 16.7948 11.9594 16.6177 11.8802 16.5365C11.4114 16.0521 10.926 15.5844 10.4677 15.1334L11.7239 13.8719L13.125 15.3469C13.9885 14.9657 14.7219 14.6511 15.4427 14.3125C15.5312 14.2709 15.6 14.0948 15.6031 13.9792C15.6187 13.398 15.6104 12.8157 15.6104 12.2084H17.4073C17.4073 12.7105 17.4281 13.2021 17.401 13.6907C17.3812 14.0375 17.4667 14.1823 17.8479 14.2344C18.6129 14.3249 19.3414 14.612 19.9625 15.0677C19.9031 15.1177 19.8458 15.1719 19.7844 15.2177C17.9323 16.6448 17.1427 18.5209 17.5146 20.8282C17.6217 21.5844 17.8928 22.3081 18.3087 22.9486C18.7247 23.5891 19.2756 24.1311 19.9229 24.5365V24.5365Z" fill="#F1B737"/>
<path d="M19.9229 24.5365C19.2757 24.1319 18.7246 23.591 18.3081 22.9514C17.8916 22.3117 17.6197 21.5889 17.5115 20.8334C17.1396 18.5261 17.9281 16.65 19.7813 15.2229C19.8427 15.175 19.9 15.1188 19.9594 15.0729C19.9623 15.0707 19.9657 15.069 19.9693 15.0681C19.9729 15.0672 19.9767 15.0671 19.9803 15.0678C19.984 15.0685 19.9874 15.07 19.9905 15.0721C19.9935 15.0743 19.996 15.077 19.9979 15.0802C19.9979 18.0941 19.9979 21.108 19.9979 24.1219C19.9851 24.262 19.96 24.4007 19.9229 24.5365V24.5365Z" fill="#5D6367"/>
</svg>
