<svg width="80" height="54" viewBox="0 0 80 54" fill="none" xmlns="http://www.w3.org/2000/svg">
<g clip-path="url(#clip0_1280_519)">
<path d="M80 0H0V41.9558H80V0Z" fill="#FFE1EB"/>
<path d="M54.3563 11.2131C53.3395 11.3286 52.3018 11.2202 51.3587 10.8998C50.4155 10.5794 49.6036 10.0596 49.0134 9.39808C47.6557 7.87369 45.6806 6.75695 43.4111 6.23059C41.1416 5.70423 38.7123 5.79943 36.5205 6.50061C35.6473 6.78429 34.7052 6.9128 33.7615 6.87697C32.8178 6.84115 31.8958 6.64186 31.0614 6.29335C28.9897 5.42139 26.6663 4.9865 24.3174 5.03106C21.9686 5.07563 19.6745 5.59813 17.6587 6.54764C15.6429 7.49715 13.9742 8.84129 12.8152 10.449C11.6562 12.0568 11.0465 13.8734 11.0453 15.7217C11.0453 21.097 16.048 25.4395 22.3947 26.2744C24.8245 26.5941 26.9269 27.8217 27.9317 29.5914C28.6054 30.7767 29.6333 31.8162 30.9278 32.6216C32.2222 33.427 33.745 33.9743 35.3664 34.2169C36.9877 34.4596 38.6596 34.3903 40.2395 34.015C41.8195 33.6398 43.2608 32.9697 44.4406 32.0618C46.9771 30.1066 50.5205 29.1953 54.016 29.6678C55.7204 29.8983 57.4682 29.8333 59.1374 29.4772C60.8065 29.1212 62.3566 28.4826 63.6795 27.6063C65.0023 26.73 66.0659 25.637 66.796 24.4037C67.526 23.1703 67.9049 21.8265 67.9062 20.466C67.9062 14.5393 61.1605 10.4453 54.3563 11.2131Z" fill="#FFEBF1"/>
<path d="M46.7765 5.50458H33.2235C32.2361 5.50458 31.4357 6.13423 31.4357 6.91094V27.4307C31.4357 28.2074 32.2361 28.837 33.2235 28.837H46.7765C47.7639 28.837 48.5643 28.2074 48.5643 27.4307V6.91094C48.5643 6.13423 47.7639 5.50458 46.7765 5.50458Z" fill="white"/>
<path d="M48.5643 24.0986V27.5725C48.5643 27.9077 48.395 28.2291 48.0938 28.4661C47.7925 28.7031 47.3839 28.8362 46.9579 28.8362H33.0421C32.6161 28.8362 32.2075 28.7031 31.9062 28.4661C31.605 28.2291 31.4357 27.9077 31.4357 27.5725V24.0986H48.5643Z" fill="#FFD2D7"/>
<path d="M47.1051 5.73785C47.3318 5.73807 47.5493 5.80873 47.7101 5.93445C47.8709 6.06018 47.9621 6.23079 47.9638 6.40914V27.9241C47.9635 28.1032 47.8729 28.2748 47.712 28.4015C47.551 28.5281 47.3328 28.5993 47.1051 28.5996H32.8939C32.6672 28.5982 32.4503 28.5265 32.2905 28.4C32.1307 28.2735 32.0409 28.1024 32.0406 27.9241V6.4125C32.042 6.2348 32.1323 6.06469 32.2921 5.93904C32.4518 5.81338 32.668 5.74231 32.8939 5.74121H47.1051V5.73785ZM47.1051 4.94153H32.8939C32.3969 4.94153 31.9202 5.09686 31.5687 5.37335C31.2172 5.64984 31.0198 6.02484 31.0198 6.41585V27.9308C31.0198 28.3219 31.2172 28.697 31.5686 28.9736C31.9201 29.2502 32.3968 29.4057 32.8939 29.4059H47.1051C47.6024 29.4059 48.0794 29.2505 48.4311 28.9739C48.7827 28.6972 48.9803 28.322 48.9803 27.9308V6.4125C48.98 6.02141 48.7823 5.64641 48.4307 5.36994C48.0791 5.09347 47.6023 4.93817 47.1051 4.93817V4.94153Z" fill="#C3417D"/>
<path d="M35.4134 6.31854C35.4672 6.47327 35.5841 6.60981 35.7462 6.70715C35.9083 6.80449 36.1065 6.85723 36.3105 6.85725H43.6811C43.8865 6.85871 44.0867 6.80665 44.2505 6.7092C44.4143 6.61175 44.5326 6.47438 44.5867 6.31854L44.9067 5.39551H35.0934L35.4134 6.31854Z" fill="#C3417D"/>
<path d="M42.5216 6.25145C42.6459 6.25145 42.7467 6.17218 42.7467 6.07439C42.7467 5.97661 42.6459 5.89734 42.5216 5.89734C42.3973 5.89734 42.2966 5.97661 42.2966 6.07439C42.2966 6.17218 42.3973 6.25145 42.5216 6.25145Z" fill="#AA3C6E"/>
<path d="M41.2374 6.07434H37.215" stroke="#AA3C6E" stroke-width="2.38" stroke-miterlimit="10" stroke-linecap="round"/>
<path d="M36.9067 10.0132C36.9067 10.3048 37.0539 10.5845 37.3159 10.7908C37.5779 10.997 37.9333 11.113 38.304 11.1133H45.376C45.7401 11.1054 46.0859 10.986 46.3398 10.7807C46.5937 10.5753 46.7358 10.3001 46.7358 10.0136C46.7358 9.7271 46.5937 9.45191 46.3398 9.24654C46.0859 9.04118 45.7401 8.92185 45.376 8.91394H38.2987C37.9282 8.91416 37.5729 9.03005 37.3109 9.23615C37.049 9.44225 36.9016 9.72171 36.9014 10.0132H36.9067Z" fill="#D2F0FF"/>
<path d="M36.9067 9.82855C36.907 10.12 37.0543 10.3995 37.3163 10.6056C37.5783 10.8117 37.9335 10.9276 38.304 10.9278H45.376C45.7466 10.9278 46.102 10.812 46.3641 10.6058C46.6261 10.3997 46.7734 10.1201 46.7734 9.82855C46.7734 9.53701 46.6261 9.25742 46.3641 9.05127C46.102 8.84512 45.7466 8.72931 45.376 8.72931H38.2987C38.1152 8.72931 37.9335 8.75774 37.764 8.81298C37.5944 8.86823 37.4404 8.9492 37.3106 9.05127C37.1809 9.15334 37.078 9.27452 37.0077 9.40789C36.9375 9.54126 36.9014 9.6842 36.9014 9.82855H36.9067Z" fill="url(#paint0_linear_1280_519)"/>
<path d="M36.9067 18.406C36.907 18.6975 37.0543 18.9769 37.3163 19.183C37.5782 19.3891 37.9335 19.505 38.304 19.5052H45.376C45.7401 19.4973 46.0858 19.378 46.3398 19.1726C46.5937 18.9673 46.7358 18.6921 46.7358 18.4056C46.7358 18.1191 46.5937 17.8439 46.3398 17.6385C46.0858 17.4331 45.7401 17.3138 45.376 17.3059H38.2987C37.9289 17.3072 37.5749 17.4237 37.314 17.6299C37.0531 17.836 36.9067 18.1151 36.9067 18.406V18.406Z" fill="#D2F0FF"/>
<path d="M41.4123 11.683H34.9131C34.0542 11.683 33.3579 12.2307 33.3579 12.9064V15.5127C33.3579 16.1884 34.0542 16.7361 34.9131 16.7361H41.4123C42.2712 16.7361 42.9675 16.1884 42.9675 15.5127V12.9064C42.9675 12.2307 42.2712 11.683 41.4123 11.683Z" fill="#D2F0FF"/>
<path d="M36.9067 18.2206C36.907 18.512 37.0543 18.7915 37.3163 18.9976C37.5783 19.2037 37.9335 19.3196 38.304 19.3198H45.376C45.7466 19.3198 46.102 19.204 46.3641 18.9979C46.6261 18.7917 46.7734 18.5121 46.7734 18.2206C46.7734 17.929 46.6261 17.6494 46.3641 17.4433C46.102 17.2372 45.7466 17.1213 45.376 17.1213H38.2987C38.1152 17.1213 37.9335 17.1498 37.764 17.205C37.5944 17.2603 37.4404 17.3412 37.3106 17.4433C37.1809 17.5454 37.078 17.6666 37.0077 17.7999C36.9375 17.9333 36.9014 18.0762 36.9014 18.2206H36.9067Z" fill="url(#paint1_linear_1280_519)"/>
<path d="M33.2267 21.0786C33.2267 21.223 33.2628 21.3659 33.3331 21.4993C33.4033 21.6326 33.5062 21.7538 33.636 21.8559C33.7657 21.958 33.9198 22.0389 34.0893 22.0942C34.2588 22.1494 34.4405 22.1778 34.624 22.1778H41.7067C42.0707 22.1699 42.4165 22.0506 42.6704 21.8452C42.9244 21.6399 43.0665 21.3647 43.0665 21.0782C43.0665 20.7917 42.9244 20.5165 42.6704 20.3111C42.4165 20.1058 42.0707 19.9864 41.7067 19.9785H34.624C34.4404 19.9785 34.2586 20.007 34.089 20.0623C33.9194 20.1176 33.7653 20.1986 33.6356 20.3008C33.5058 20.4029 33.4029 20.5242 33.3327 20.6577C33.2626 20.7911 33.2265 20.9342 33.2267 21.0786V21.0786Z" fill="#D2F0FF"/>
<path d="M33.2267 20.894C33.2267 21.1855 33.3739 21.4651 33.636 21.6713C33.898 21.8774 34.2534 21.9932 34.624 21.9932H41.7067C42.0773 21.9932 42.4327 21.8774 42.6947 21.6713C42.9568 21.4651 43.104 21.1855 43.104 20.894C43.104 20.6024 42.9568 20.3228 42.6947 20.1167C42.4327 19.9106 42.0773 19.7947 41.7067 19.7947H34.624C34.4405 19.7946 34.2587 19.823 34.0891 19.8782C33.9195 19.9334 33.7654 20.0144 33.6356 20.1165C33.5059 20.2185 33.4029 20.3398 33.3328 20.4732C33.2626 20.6066 33.2265 20.7496 33.2267 20.894V20.894Z" fill="url(#paint2_linear_1280_519)"/>
<path d="M34.9131 16.5507H41.4123C42.2712 16.5507 42.9675 16.003 42.9675 15.3273V12.721C42.9675 12.0453 42.2712 11.4976 41.4123 11.4976H34.9131C34.0542 11.4976 33.3579 12.0453 33.3579 12.721V15.3273C33.3579 16.003 34.0542 16.5507 34.9131 16.5507Z" fill="url(#paint3_linear_1280_519)"/>
<path d="M45.4645 25.2406H34.5355" stroke="white" stroke-width="3.6" stroke-miterlimit="10" stroke-linecap="round"/>
<g style="mix-blend-mode:overlay">
<g style="mix-blend-mode:overlay">
<path d="M45.2758 10.5276C45.7017 10.5276 46.047 10.256 46.047 9.92089C46.047 9.58583 45.7017 9.31421 45.2758 9.31421C44.8499 9.31421 44.5046 9.58583 44.5046 9.92089C44.5046 10.256 44.8499 10.5276 45.2758 10.5276Z" fill="black"/>
</g>
</g>
<path d="M45.4645 26.1553H40.4256" stroke="white" stroke-width="3.6" stroke-miterlimit="10" stroke-linecap="round"/>
<path d="M45.2758 10.4352C45.7017 10.4352 46.047 10.1636 46.047 9.82854C46.047 9.49348 45.7017 9.22186 45.2758 9.22186C44.8499 9.22186 44.5046 9.49348 44.5046 9.82854C44.5046 10.1636 44.8499 10.4352 45.2758 10.4352Z" fill="white"/>
<path d="M44.5046 18.2206C44.5048 18.3405 44.5502 18.4577 44.6351 18.5574C44.7199 18.657 44.8405 18.7347 44.9814 18.7805C45.1223 18.8262 45.2774 18.8381 45.4269 18.8146C45.5764 18.7911 45.7137 18.7333 45.8215 18.6484C45.9292 18.5635 46.0026 18.4554 46.0322 18.3378C46.0619 18.2201 46.0466 18.0982 45.9882 17.9874C45.9298 17.8766 45.8309 17.7818 45.7041 17.7152C45.5773 17.6486 45.4283 17.613 45.2758 17.613C45.1744 17.613 45.074 17.6288 44.9804 17.6593C44.8868 17.6898 44.8017 17.7346 44.7301 17.791C44.6585 17.8475 44.6017 17.9144 44.563 17.9881C44.5243 18.0618 44.5044 18.1408 44.5046 18.2206Z" fill="white"/>
<path d="M34.6603 20.2856C34.5075 20.2855 34.3581 20.321 34.231 20.3876C34.1038 20.4543 34.0047 20.5491 33.9461 20.6601C33.8874 20.7711 33.872 20.8933 33.9017 21.0112C33.9314 21.1291 34.0048 21.2374 34.1128 21.3224C34.2207 21.4075 34.3583 21.4654 34.5082 21.4889C34.658 21.5125 34.8133 21.5005 34.9545 21.4545C35.0957 21.4086 35.2164 21.3307 35.3013 21.2308C35.3862 21.1308 35.4315 21.0134 35.4315 20.8932C35.4315 20.7322 35.3503 20.5778 35.2057 20.4639C35.0611 20.35 34.8649 20.2859 34.6603 20.2856V20.2856Z" fill="white"/>
<path d="M34.8672 12.0287C34.7144 12.0286 34.5649 12.0641 34.4378 12.1308C34.3106 12.1975 34.2114 12.2923 34.1529 12.4034C34.0943 12.5144 34.0789 12.6367 34.1087 12.7546C34.1384 12.8725 34.212 12.9808 34.3201 13.0658C34.4281 13.1509 34.5658 13.2087 34.7157 13.2322C34.8656 13.2556 35.021 13.2435 35.1622 13.1974C35.3033 13.1513 35.4239 13.0733 35.5087 12.9733C35.5935 12.8732 35.6386 12.7557 35.6384 12.6354C35.6381 12.4746 35.5568 12.3204 35.4122 12.2067C35.2676 12.093 35.0717 12.029 34.8672 12.0287Z" fill="white"/>
<g style="mix-blend-mode:overlay">
<g style="mix-blend-mode:overlay">
<path d="M44.5046 18.3129C44.5046 18.4328 44.5498 18.5501 44.6345 18.6499C44.7193 18.7497 44.8397 18.8274 44.9807 18.8734C45.1216 18.9193 45.2766 18.9313 45.4262 18.9079C45.5758 18.8845 45.7132 18.8267 45.8211 18.7418C45.929 18.657 46.0024 18.5489 46.0322 18.4312C46.0619 18.3135 46.0466 18.1915 45.9883 18.0807C45.9299 17.9698 45.8311 17.8751 45.7042 17.8084C45.5774 17.7418 45.4283 17.7062 45.2758 17.7062C45.0712 17.7062 44.8751 17.7701 44.7305 17.8839C44.5858 17.9976 44.5046 18.152 44.5046 18.3129Z" fill="black"/>
</g>
</g>
<g style="mix-blend-mode:overlay">
<g style="mix-blend-mode:overlay">
<path d="M34.8672 13.3344C35.2931 13.3344 35.6384 13.0628 35.6384 12.7277C35.6384 12.3927 35.2931 12.121 34.8672 12.121C34.4413 12.121 34.096 12.3927 34.096 12.7277C34.096 13.0628 34.4413 13.3344 34.8672 13.3344Z" fill="black"/>
</g>
</g>
<g style="mix-blend-mode:overlay">
<g style="mix-blend-mode:overlay">
<path d="M33.888 20.9855C33.8878 21.1057 33.9329 21.2232 34.0176 21.3232C34.1024 21.4232 34.2229 21.5012 34.364 21.5473C34.5051 21.5934 34.6604 21.6056 34.8103 21.5823C34.9601 21.5589 35.0979 21.5011 35.206 21.4162C35.3141 21.3313 35.3877 21.223 35.4176 21.1051C35.4475 20.9873 35.4323 20.8651 35.3739 20.754C35.3154 20.643 35.2164 20.548 35.0894 20.4812C34.9624 20.4144 34.8131 20.3788 34.6603 20.3788C34.4556 20.3788 34.2594 20.4427 34.1146 20.5564C33.9698 20.6702 33.8883 20.8245 33.888 20.9855V20.9855Z" fill="black"/>
</g>
</g>
<path d="M43.488 9.82855H39.9296" stroke="white" stroke-width="2.21" stroke-miterlimit="10" stroke-linecap="round"/>
<path d="M43.488 18.2206H39.9296" stroke="white" stroke-width="2.21" stroke-miterlimit="10" stroke-linecap="round"/>
<path d="M40.8565 20.9855H37.4667" stroke="white" stroke-width="2.21" stroke-miterlimit="10" stroke-linecap="round"/>
<path d="M38.0406 11.683C37.839 11.6831 37.6436 11.7376 37.487 11.8374C37.0827 12.0942 36.4672 12.6673 36.9792 13.8664C37.5606 15.2291 39.8059 16.1639 39.8059 16.1639L39.7216 15.5891L40.3915 15.5228C40.3915 15.5228 37.6928 14.421 37.4198 13.3042C37.0624 11.8424 38.0406 11.683 38.0406 11.683Z" fill="#C3417D"/>
<path d="M38.0043 11.683C38.2059 11.6831 38.4013 11.7376 38.5579 11.8374C38.9622 12.0942 39.5776 12.6673 39.0656 13.8664C38.4832 15.2291 36.239 16.1639 36.239 16.1639L36.3232 15.5891L35.6534 15.5228C35.6534 15.5228 38.352 14.421 38.6251 13.3042C38.9824 11.8424 38.0043 11.683 38.0043 11.683Z" fill="#FF6196"/>
<path d="M13.6267 26.5001C13.6267 26.5001 10.32 26.1049 9.00377 24.1321C7.62563 22.0578 9.2907 20.9552 9.80056 20.7454L13.6267 26.5001Z" fill="#6EAA50"/>
<path d="M13.6267 26.5001C13.6267 26.5001 15.1019 24.1355 13.7909 22.1627C12.4117 20.0893 10.3115 20.5357 9.80054 20.7455L13.6267 26.5001Z" fill="#5A915A"/>
<path d="M10.512 21.817C10.9174 22.2785 11.2864 22.7551 11.6448 23.2351L11.9115 23.5968L12.1707 23.961C12.3449 24.2043 12.5142 24.4488 12.6784 24.6943C13.0102 25.1861 13.3302 25.6828 13.6278 26.1888C13.9254 26.6948 14.2102 27.205 14.447 27.7361C14.0288 27.2797 13.6576 26.8047 13.2992 26.3239C12.9408 25.8431 12.6048 25.353 12.2816 24.858C12.1181 24.6102 11.9595 24.3615 11.8059 24.112L11.5723 23.7361L11.3472 23.3576C11.0507 22.8508 10.7638 22.3406 10.512 21.817Z" fill="#AAC85A"/>
<path d="M11.8912 22.2701L11.488 23.2837L10.1995 22.9657" stroke="#AAC85A" stroke-width="1.07" stroke-miterlimit="10" stroke-linecap="round"/>
<path d="M12.7659 22.7576L12.1557 24.2882L10.2101 23.809" stroke="#AAC85A" stroke-width="1.07" stroke-miterlimit="10" stroke-linecap="round"/>
<path d="M13.2278 24.2798L12.8246 25.2934L11.535 24.9754" stroke="#AAC85A" stroke-width="1.07" stroke-miterlimit="10" stroke-linecap="round"/>
<path d="M21.0677 40.4336C21.0677 40.4336 9.46028 38.9551 10.5131 33.187C11.2096 29.3732 15.6533 31.101 15.6533 31.101C15.6533 31.101 10.048 26.9742 12.896 25.4999C14.8576 24.4845 16.8693 26.3323 16.8693 26.3323C16.8693 26.3323 13.8208 19.397 17.5787 19.0177L21.0677 40.4336Z" fill="#C8D264"/>
<path d="M21.0677 40.4336C21.0677 40.4336 31.8272 36.6995 28.9611 31.3267C27.0645 27.7747 23.3173 30.3281 23.3173 30.3281C23.3173 30.3281 27.4197 25.2229 24.1899 24.3612C21.968 23.7679 20.6123 25.9555 20.6123 25.9555C20.6123 25.9555 21.3387 18.6401 17.5808 19.0185L21.0677 40.4336Z" fill="#AAC85A"/>
<path d="M18.1184 22.3289L21.5104 43.1515" stroke="#82BE50" stroke-width="2.74" stroke-miterlimit="10"/>
<path d="M23.4624 25.6039L19.3366 29.8046L13.9968 26.558" stroke="#82BE50" stroke-width="2.74" stroke-miterlimit="10"/>
<path d="M15.0816 33.2172L20.4213 36.4637L24.5472 32.2631" stroke="#82BE50" stroke-width="2.74" stroke-miterlimit="10"/>
<path d="M28.3915 42.2553C28.3915 42.2553 24.2219 39.6037 24.4363 36.0459C24.6624 32.3034 28.096 31.8386 29.0165 31.873L28.3915 42.2553Z" fill="#C8D264"/>
<path d="M28.3915 42.2553C28.3915 42.2553 32.8608 39.9251 33.0752 36.3656C33.2992 32.6231 29.9371 31.9048 29.0165 31.8713L28.3915 42.2553Z" fill="#AAC85A"/>
<path d="M28.3574 43.1221C28.5771 41.1368 29.0113 37.1485 29.0102 36.483C29.0102 35.5902 28.9846 34.6974 28.9035 33.8021C28.7126 34.6873 28.5835 35.5743 28.4769 36.4629C28.3702 37.3515 28.2891 38.2401 28.2283 39.1296C28.1675 40.0191 28.1291 40.9102 28.1281 41.8022C28.1281 42.0539 28.1537 42.5968 28.1803 43.1221H28.3574Z" fill="#5A915A"/>
<path d="M28.7328 36.5787L27.2 35.2538C27.1894 35.245 27.1811 35.2347 27.1757 35.2234C27.1702 35.2121 27.1677 35.2 27.1682 35.1879C27.1688 35.1758 27.1724 35.164 27.1789 35.153C27.1854 35.142 27.1946 35.1322 27.206 35.1241C27.2174 35.1159 27.2307 35.1097 27.2452 35.1057C27.2598 35.1017 27.2751 35.1 27.2905 35.1008C27.3058 35.1015 27.3208 35.1047 27.3346 35.1101C27.3484 35.1154 27.3607 35.1229 27.3707 35.1321L28.7477 36.3228L30.2624 35.2429C30.2851 35.2268 30.315 35.2184 30.3455 35.2195C30.3761 35.2206 30.4049 35.2311 30.4256 35.2487C30.446 35.2665 30.4567 35.2898 30.4553 35.3137C30.4539 35.3376 30.4405 35.3601 30.4181 35.3763L28.7328 36.5787Z" fill="#5A915A"/>
<path d="M28.624 38.392L26.3467 36.426C26.3262 36.4081 26.3156 36.3846 26.317 36.3606C26.3184 36.3366 26.3317 36.3139 26.3542 36.2976C26.3769 36.2816 26.4066 36.2734 26.437 36.2747C26.4674 36.2759 26.4959 36.2866 26.5163 36.3043L28.6358 38.1361L30.9643 36.4696C30.987 36.4535 31.0169 36.4451 31.0474 36.4462C31.078 36.4473 31.1068 36.4578 31.1275 36.4755C31.1478 36.4933 31.1583 36.5167 31.1567 36.5406C31.1551 36.5645 31.1415 36.587 31.119 36.603L28.624 38.392Z" fill="#5A915A"/>
<path d="M28.5152 40.2054L26.9867 38.8804C26.9692 38.8624 26.9609 38.8399 26.9635 38.8173C26.966 38.7947 26.9793 38.7737 27.0006 38.7584C27.0219 38.7431 27.0497 38.7347 27.0785 38.7347C27.1073 38.7348 27.1351 38.7434 27.1563 38.7587L28.5334 39.9503L30.048 38.8661C30.0708 38.8507 30.1003 38.8429 30.1303 38.8444C30.1603 38.8459 30.1883 38.8565 30.2085 38.874C30.2287 38.8915 30.2394 38.9145 30.2383 38.9381C30.2372 38.9617 30.2244 38.9841 30.2027 39.0004L28.5152 40.2054Z" fill="#5A915A"/>
<path d="M16.7702 41.9835C15.1798 40.5469 11.1542 40.5855 11.0272 40.0225C10.9003 39.4594 13.2758 39.258 13.2758 39.258C13.2758 39.258 9.11576 38.5028 8.77656 37.6839C8.25922 36.4252 12.3296 37.4716 12.3296 37.4716C12.3296 37.4716 6.35629 35.3545 6.95149 33.7543C7.29602 32.822 11.0283 34.5934 11.0283 34.5934C11.0283 34.5934 7.41976 31.8243 9.00162 30.3936L16.7702 41.9835Z" fill="#82BE50"/>
<path d="M16.7702 41.9835C16.1611 40.1374 18.4768 37.5479 17.9563 37.1477C17.4358 36.7474 15.8848 38.1798 15.8848 38.1798C15.8848 38.1798 17.4432 35.0482 16.7755 34.3693C15.744 33.3213 14.5462 36.5561 14.5462 36.5561C14.5462 36.5561 15.6982 31.4845 13.6843 30.965C12.511 30.663 12.2624 34.0857 12.2624 34.0857C12.2624 34.0857 11.3984 30.1805 9.00165 30.3936L16.7702 41.9835Z" fill="#6EAA50"/>
<path d="M10.5814 32.7498L17.5755 43.1851" stroke="#5A915A" stroke-width="1.85" stroke-miterlimit="10"/>
<path d="M13.6267 20.054C14.0437 20.054 14.3819 19.788 14.3819 19.4599C14.3819 19.1318 14.0437 18.8658 13.6267 18.8658C13.2096 18.8658 12.8715 19.1318 12.8715 19.4599C12.8715 19.788 13.2096 20.054 13.6267 20.054Z" fill="#82BE50"/>
<path d="M15.7696 18.7844C16.0023 18.7844 16.1909 18.636 16.1909 18.453C16.1909 18.2699 16.0023 18.1215 15.7696 18.1215C15.5369 18.1215 15.3483 18.2699 15.3483 18.453C15.3483 18.636 15.5369 18.7844 15.7696 18.7844Z" fill="#82BE50"/>
<path d="M10.9344 26.6838C10.9344 26.7286 10.9175 26.7724 10.8859 26.8097C10.8542 26.847 10.8092 26.876 10.7566 26.8932C10.704 26.9103 10.6461 26.9148 10.5902 26.906C10.5343 26.8973 10.483 26.8757 10.4428 26.844C10.4025 26.8124 10.375 26.772 10.3639 26.728C10.3528 26.6841 10.3585 26.6385 10.3803 26.5971C10.4021 26.5557 10.439 26.5204 10.4864 26.4955C10.5338 26.4706 10.5894 26.4573 10.6464 26.4573C10.7228 26.4573 10.796 26.4811 10.85 26.5236C10.9041 26.5661 10.9344 26.6237 10.9344 26.6838V26.6838Z" fill="#82BE50"/>
<path d="M43.2384 39.4091C43.2384 39.4091 45.7174 37.6385 45.4219 35.4241C45.1104 33.0972 42.9483 32.9068 42.3755 32.9512L43.2384 39.4091Z" fill="#6EAA50"/>
<path d="M43.2384 39.4091C43.2384 39.4091 40.3456 38.0824 40.0501 35.8688C39.7387 33.542 41.8027 32.9991 42.3755 32.9512L43.2384 39.4091Z" fill="#5A915A"/>
<path d="M42.5355 34.152C42.6966 34.6982 42.816 35.2479 42.9248 35.7983L43.0038 36.212L43.0742 36.6257C43.1222 36.9018 43.1638 37.1778 43.2032 37.4547C43.2811 38.0077 43.3462 38.5624 43.3867 39.1187C43.4272 39.675 43.4518 40.2322 43.424 40.7969C43.248 40.2523 43.1254 39.7061 43.0176 39.1514C42.9099 38.5968 42.8267 38.048 42.7574 37.4942C42.7222 37.2173 42.6902 36.9395 42.6635 36.6626L42.623 36.2431L42.591 35.8235C42.5515 35.2705 42.5238 34.7133 42.5355 34.152Z" fill="#AAC85A"/>
<path d="M41.7067 35.1312L42.7563 35.7992L43.6053 34.9743" stroke="#AAC85A" stroke-width="1.07" stroke-miterlimit="10" stroke-linecap="round"/>
<path d="M41.3227 35.9183L42.9067 36.9269L44.1899 35.6808" stroke="#AAC85A" stroke-width="1.07" stroke-miterlimit="10" stroke-linecap="round"/>
<path d="M42.0085 37.3868L43.0581 38.0555L43.9072 37.2299" stroke="#AAC85A" stroke-width="1.07" stroke-miterlimit="10" stroke-linecap="round"/>
<path d="M56.4096 41.0327C56.4096 41.0327 68.0171 39.5542 66.9643 33.7861C66.2677 29.9724 61.824 31.7001 61.824 31.7001C61.824 31.7001 67.4293 27.5733 64.5813 26.099C62.6197 25.0845 60.608 26.9314 60.608 26.9314C60.608 26.9314 63.6565 19.9961 59.8987 19.6177L56.4096 41.0327Z" fill="#C8D264"/>
<path d="M56.4096 41.0327C56.4096 41.0327 45.6501 37.2995 48.5163 31.9266C50.4128 28.3738 54.1589 30.9273 54.1589 30.9273C54.1589 30.9273 50.0576 25.8221 53.2864 24.9603C55.5093 24.3679 56.8651 26.5546 56.8651 26.5546C56.8651 26.5546 56.1387 19.2384 59.8965 19.6176L56.4096 41.0327Z" fill="#AAC85A"/>
<path d="M59.3589 22.9255L55.9659 43.7473" stroke="#82BE50" stroke-width="2.74" stroke-miterlimit="10"/>
<path d="M54.015 26.1997L58.1408 30.4003L63.4806 27.1546" stroke="#82BE50" stroke-width="2.74" stroke-miterlimit="10"/>
<path d="M62.3957 33.8138L57.056 37.0595L52.9291 32.8589" stroke="#82BE50" stroke-width="2.74" stroke-miterlimit="10"/>
<path d="M49.0848 42.8511C49.0848 42.8511 53.2544 40.2003 53.04 36.6416C52.8149 32.9 49.3813 32.4343 48.4608 32.4687L49.0848 42.8511Z" fill="#C8D264"/>
<path d="M49.0848 42.8511C49.0848 42.8511 44.6166 40.5217 44.4022 36.9622C44.1782 33.2197 47.5403 32.5014 48.4608 32.467L49.0848 42.8511Z" fill="#AAC85A"/>
<path d="M49.12 43.7179C48.8992 41.7317 48.4662 37.7434 48.4672 37.078C48.4672 36.186 48.4928 35.2932 48.5739 34.3978C48.7648 35.2823 48.8939 36.17 49.0006 37.0578C49.1072 37.9456 49.1883 38.8351 49.2491 39.7254C49.3099 40.6157 49.3483 41.506 49.3494 42.398C49.3494 42.6497 49.3238 43.1918 49.2971 43.7179H49.12Z" fill="#5A915A"/>
<path d="M48.7467 37.1728L50.2795 35.8478C50.2999 35.8301 50.3105 35.8067 50.3091 35.7828C50.3077 35.759 50.2944 35.7365 50.272 35.7203C50.2493 35.7042 50.2194 35.6958 50.1889 35.6969C50.1583 35.698 50.1296 35.7085 50.1088 35.7262L48.7285 36.9211L47.2139 35.8378C47.1913 35.8217 47.1616 35.8133 47.1313 35.8144C47.1009 35.8155 47.0723 35.826 47.0517 35.8436C47.0313 35.8615 47.0206 35.885 47.022 35.909C47.0234 35.9331 47.0367 35.9557 47.0592 35.972L48.7467 37.1728Z" fill="#5A915A"/>
<path d="M48.8534 38.9878L51.1264 37.0218C51.144 37.0037 51.1522 36.9812 51.1497 36.9586C51.1471 36.936 51.1338 36.915 51.1126 36.8998C51.0913 36.8845 51.0634 36.876 51.0346 36.8761C51.0058 36.8762 50.978 36.8847 50.9568 36.9001L48.8374 38.7327L46.5067 37.0654C46.4842 37.0493 46.4545 37.041 46.4241 37.0421C46.3937 37.0432 46.3652 37.0537 46.3446 37.0713C46.3241 37.0891 46.3134 37.1126 46.3148 37.1367C46.3162 37.1607 46.3296 37.1833 46.352 37.1997L48.8534 38.9878Z" fill="#5A915A"/>
<path d="M48.96 40.802L50.4918 39.477C50.5122 39.4592 50.5229 39.4357 50.5215 39.4116C50.5201 39.3876 50.5068 39.365 50.4843 39.3487C50.4731 39.3407 50.4601 39.3345 50.4458 39.3305C50.4316 39.3265 50.4165 39.3248 50.4015 39.3254C50.3864 39.326 50.3716 39.329 50.358 39.3341C50.3444 39.3393 50.3322 39.3465 50.3222 39.3554L48.9472 40.5461L47.4326 39.4628C47.4217 39.4535 47.4086 39.4462 47.394 39.4412C47.3793 39.4361 47.3635 39.4335 47.3476 39.4336C47.3316 39.4336 47.3158 39.4363 47.3012 39.4413C47.2866 39.4464 47.2735 39.4539 47.2627 39.4631C47.252 39.4724 47.2438 39.4834 47.2387 39.4953C47.2336 39.5072 47.2317 39.5198 47.2331 39.5323C47.2346 39.5448 47.2393 39.5569 47.247 39.5679C47.2547 39.5789 47.2652 39.5886 47.2779 39.5962L48.96 40.802Z" fill="#5A915A"/>
<path d="M60.7072 42.5792C62.2933 41.1427 66.3232 41.1813 66.4533 40.6182C66.5835 40.0552 64.2048 39.8546 64.2048 39.8546C64.2048 39.8546 68.3701 39.0994 68.704 38.2796C69.2213 37.0209 65.1509 38.0673 65.1509 38.0673C65.1509 38.0673 71.1243 35.9502 70.5291 34.35C70.1835 33.4178 66.4523 35.1891 66.4523 35.1891C66.4523 35.1891 70.0608 32.4201 68.4789 30.9885L60.7072 42.5792Z" fill="#82BE50"/>
<path d="M60.7072 42.5792C61.3163 40.7331 59.0005 38.1436 59.52 37.7434C60.0395 37.3431 61.5915 38.7721 61.5915 38.7721C61.5915 38.7721 60.0331 35.6406 60.7019 34.9617C61.7333 33.9137 62.9312 37.1484 62.9312 37.1484C62.9312 37.1484 61.7792 32.0768 63.7931 31.5574C64.9664 31.2545 65.2149 34.6772 65.2149 34.6772C65.2149 34.6772 66.0789 30.7728 68.4757 30.9893L60.7072 42.5792Z" fill="#6EAA50"/>
<path d="M66.8961 33.3464L59.9019 43.7808" stroke="#5A915A" stroke-width="1.85" stroke-miterlimit="10"/>
<path d="M63.0966 20.0548C63.0966 20.1724 63.1409 20.2873 63.2239 20.385C63.3069 20.4827 63.4249 20.5589 63.563 20.6038C63.7011 20.6487 63.853 20.6605 63.9995 20.6375C64.146 20.6145 64.2806 20.5578 64.3861 20.4746C64.4917 20.3915 64.5636 20.2855 64.5926 20.1702C64.6216 20.0549 64.6065 19.9355 64.5492 19.8269C64.4918 19.7184 64.3949 19.6256 64.2705 19.5605C64.1462 19.4953 64.0001 19.4606 63.8507 19.4608C63.7516 19.4608 63.6534 19.4761 63.5618 19.506C63.4703 19.5359 63.3871 19.5796 63.3171 19.6348C63.247 19.69 63.1915 19.7555 63.1537 19.8276C63.1158 19.8996 63.0964 19.9769 63.0966 20.0548V20.0548Z" fill="#82BE50"/>
<path d="M61.7078 19.3802C61.9405 19.3802 62.1291 19.2318 62.1291 19.0487C62.1291 18.8657 61.9405 18.7173 61.7078 18.7173C61.4751 18.7173 61.2864 18.8657 61.2864 19.0487C61.2864 19.2318 61.4751 19.3802 61.7078 19.3802Z" fill="#82BE50"/>
<path d="M66.543 27.2813C66.543 27.3261 66.5599 27.3699 66.5915 27.4072C66.6231 27.4444 66.6681 27.4735 66.7208 27.4906C66.7734 27.5078 66.8313 27.5123 66.8872 27.5035C66.943 27.4948 66.9943 27.4732 67.0346 27.4415C67.0749 27.4098 67.1023 27.3695 67.1134 27.3255C67.1245 27.2816 67.1188 27.236 67.097 27.1946C67.0752 27.1532 67.0383 27.1178 66.991 27.0929C66.9436 27.068 66.8879 27.0547 66.831 27.0547C66.7546 27.0547 66.6813 27.0786 66.6273 27.1211C66.5733 27.1636 66.543 27.2212 66.543 27.2813Z" fill="#82BE50"/>
<path d="M21.0837 9.84705C21.0837 9.84705 19.9499 10.7751 20.3552 12.3778C20.8331 14.2683 19.0165 16.1882 16.8757 16.179" stroke="white" stroke-width="0.84" stroke-miterlimit="10"/>
<path d="M22.3458 9.62976C23.48 9.56768 24.2978 8.36754 24.1723 6.94916C24.0469 5.53078 23.0257 4.43129 21.8915 4.49337C20.7572 4.55545 19.9395 5.7556 20.0649 7.17397C20.1904 8.59235 21.2115 9.69184 22.3458 9.62976Z" fill="#FFC036"/>
<path d="M24.352 9.44509C23.0805 9.93849 21.7035 9.78745 21.2768 9.10945C20.8501 8.43144 21.5371 7.47821 22.8085 6.9848C24.08 6.4914 25.4571 6.64328 25.8837 7.32045C26.3104 7.99762 25.6245 8.95169 24.352 9.44509Z" fill="#FFC036"/>
<path d="M23.4966 5.95015C23.5712 6.78927 22.9739 7.51175 22.1622 7.55622C21.3504 7.60069 20.6336 6.9529 20.5622 6.11042C20.4907 5.26795 21.0848 4.54883 21.8966 4.50436C22.7083 4.45988 23.4219 5.10768 23.4966 5.95015Z" fill="url(#paint4_linear_1280_519)"/>
<path d="M21.4485 9.25962C21.2469 9.18158 20.8896 9.42744 20.6517 9.81427L21.3824 10.0954C21.6203 9.71106 21.6533 9.33682 21.4485 9.25962Z" fill="#FFC036"/>
<path d="M21.1872 9.2915C21.3001 9.37957 21.4343 9.44891 21.5819 9.49541" stroke="white" stroke-width="0.84" stroke-miterlimit="10"/>
<path d="M65.8571 12.0505C65.8571 12.0505 59.9467 6.11212 63.5317 2.61049C64.1547 2.00213 65.4165 2.0357 65.4165 2.0357C65.4165 2.0357 63.1211 1.11267 61.4517 4.22663C60.7765 5.4853 60.2784 7.44296 61.1595 9.94688C62.3435 13.3033 63.4891 14.6308 63.4891 14.6308C63.4891 14.6308 63.4336 11.7476 65.8571 12.0505Z" fill="#FF6196"/>
<path d="M66.7552 4.53625C67.2331 3.24569 66.4032 2.27819 65.3685 2.02477C64.4811 1.80576 63.5275 2.61215 63.5275 2.61215C63.7649 2.46117 64.0654 2.38544 64.3701 2.39986C66.0949 2.48964 65.856 4.17039 65.2917 4.89623C61.1701 10.1994 51.7451 10.3505 51.7451 10.3505C53.7717 11.4413 51.2117 13.5047 51.2117 13.5047C51.2117 13.5047 57.8571 11.0805 61.6437 9.27977C65.1733 7.60154 66.3211 5.70597 66.7552 4.53625Z" fill="#FFA0BE"/>
<path d="M53.7728 23.9224C53.7728 23.9224 54.4459 25.2574 51.9467 27.4911C47.9488 31.0666 50.8192 34.7033 50.8192 34.7033" stroke="white" stroke-width="0.84" stroke-miterlimit="10"/>
<path d="M55.5369 23.1946C57.192 22.7358 57.7824 20.6861 56.8554 18.6165C55.9284 16.5468 53.8351 15.241 52.1799 15.6998C50.5247 16.1586 49.9344 18.2083 50.8614 20.2779C51.7884 22.3475 53.8817 23.6534 55.5369 23.1946Z" fill="#FF6196"/>
<path d="M58.4256 22.2677C60.0606 21.1226 60.5841 19.4858 59.595 18.6118C58.6059 17.7379 56.4786 17.9577 54.8436 19.1029C53.2087 20.248 52.6851 21.8848 53.6742 22.7588C54.6634 23.6327 56.7906 23.4129 58.4256 22.2677Z" fill="#FF6196"/>
<path d="M54.1808 20.1676C55.3643 19.8396 55.8773 18.5769 55.3265 17.3474C54.7758 16.1178 53.37 15.387 52.1865 15.715C51.003 16.0431 50.4901 17.3058 51.0408 18.5353C51.5915 19.7648 52.9973 20.4956 54.1808 20.1676Z" fill="url(#paint5_linear_1280_519)"/>
<path d="M54.0085 22.9305C53.6683 22.8802 53.2672 23.3652 53.1125 24.0138L54.3467 24.1951C54.5003 23.5473 54.3499 22.9809 54.0085 22.9305Z" fill="#FF6196"/>
<path d="M53.6373 23.0623C53.8508 23.1575 54.0867 23.2174 54.3307 23.2385" stroke="white" stroke-width="0.84" stroke-miterlimit="10"/>
<path d="M13.2267 14.7508C13.2267 14.7508 12.5323 16.4718 14.304 18.2902C16.3957 20.435 15.6245 23.736 12.9248 24.769" stroke="white" stroke-width="0.84" stroke-miterlimit="10"/>
<path d="M14.6478 13.8618C16.0258 13.2304 16.1088 11.3219 14.8333 9.59919C13.5577 7.87646 11.4065 6.99177 10.0286 7.62319C8.65058 8.25461 8.56757 10.163 9.84315 11.8858C11.1187 13.6085 13.2699 14.4932 14.6478 13.8618Z" fill="#FFC036"/>
<path d="M17.024 12.6494C18.235 11.4083 18.3477 9.87748 17.2757 9.23015C16.2037 8.58282 14.353 9.06415 13.142 10.3052C11.931 11.5463 11.8183 13.0771 12.8903 13.7245C13.9623 14.3718 15.813 13.8905 17.024 12.6494Z" fill="#FFC036"/>
<path d="M13.1936 8.6714C13.951 9.69513 13.7675 10.8909 12.7819 11.3423C11.7963 11.7938 10.383 11.328 9.62564 10.3068C8.86831 9.28564 9.05177 8.08738 10.0374 7.63594C11.023 7.18449 12.4352 7.64768 13.1936 8.6714Z" fill="url(#paint6_linear_1280_519)"/>
<path d="M13.2267 13.8337C12.912 13.8337 12.6592 14.3212 12.6624 14.9245H13.8027C13.7984 14.3179 13.5467 13.8328 13.2267 13.8337Z" fill="#FFC036"/>
<path d="M12.9238 14.0015C13.1346 14.0577 13.3579 14.0794 13.5798 14.0652" stroke="white" stroke-width="0.84" stroke-miterlimit="10"/>
<path d="M30.8459 14.7046C30.8459 14.7046 32.1675 16.3661 34.2336 16.2922C36.2998 16.2184 36.9088 16.0598 37.52 17.1364C37.52 17.1364 35.8486 16.747 35.1488 17.6818C33.7195 19.5942 30.6155 19.2954 30.0288 17.6726C29.4422 16.0497 29.2192 14.0208 30.8459 14.7046Z" fill="#32285F"/>
<path d="M27.7568 47.1171C27.7568 47.1171 27.1989 49.5791 27.1989 50.3897C27.1989 51.2003 27.6458 51.6207 27.4773 51.8162C27.3088 52.0117 27.0592 51.9924 27.0026 52.4321C26.9461 52.8718 26.3882 53.2234 25.4944 53.2234C24.6005 53.2234 24.7114 52.5638 24.7402 52.4539C24.769 52.344 25.6341 51.5745 25.8848 50.915C26.1354 50.2554 25.7173 46.8931 25.7173 46.8931C25.7173 46.8931 27.5616 45.2711 27.7568 47.1171Z" fill="#FFA182"/>
<path d="M27.4773 51.8205C27.6128 51.6619 27.5157 51.0862 27.2427 50.8295C27.0293 50.9914 27.136 51.4554 26.8971 51.7525C26.6581 52.0495 25.9061 52.5077 25.2907 52.4683C24.9429 52.4448 25.0411 52.1074 25.0411 52.1074C24.8757 52.2887 24.7669 52.4255 24.7403 52.4607C24.5813 52.6688 24.2229 53.3326 25.1168 53.3326C26.0107 53.3326 26.9365 52.9843 27.0027 52.4389C27.056 51.9967 27.3067 52.0185 27.4773 51.8205Z" fill="#32285F"/>
<path d="M33.8037 47.0744C33.8037 47.0744 33.2704 50.0616 33.5349 50.5928C33.7995 51.124 35.7429 51.9849 35.7429 51.9849C35.7429 51.9849 36.6016 52.0923 36.672 52.1972C36.7424 52.3021 36.6496 52.553 36.0459 52.6243C35.4421 52.6956 34.7445 52.73 34.7445 52.73C34.0469 52.3958 33.2434 52.2236 32.4267 52.2333C32.4267 52.2333 31.7995 52.1737 32.0949 51.4193C32.3904 50.665 31.7963 47.8581 31.7963 47.8581C31.7963 47.8581 33.3067 44.7912 33.8037 47.0744Z" fill="#FFA182"/>
<path d="M33.216 51.6056C32.6912 51.3262 32.3349 51.2506 32.1376 51.2699C32.1283 51.3207 32.1144 51.3709 32.096 51.4201C31.8005 52.1753 32.4277 52.2341 32.4277 52.2341C33.2442 52.2248 34.0473 52.3973 34.7445 52.7317C34.7445 52.7317 35.4432 52.6973 36.0458 52.6259C36.6485 52.5546 36.7413 52.3037 36.672 52.1988C36.6026 52.0939 35.7429 51.9865 35.7429 51.9865C35.3258 52.2425 33.9136 51.9739 33.216 51.6056Z" fill="#32285F"/>
<path d="M32.032 51.901V52.0781C32.0314 52.1612 32.07 52.2415 32.1403 52.3035C32.2107 52.3655 32.3078 52.4048 32.4128 52.4137C32.6635 52.4364 33.0069 52.4691 33.3493 52.5077C34.0053 52.5807 34.2592 52.8341 34.7147 52.8761C35.1701 52.918 36.2315 52.8282 36.6912 52.5177C36.9728 52.3281 36.4683 52.1821 36.1739 52.2123C35.8795 52.2425 32.032 51.901 32.032 51.901Z" fill="#32285F"/>
<path d="M25.9061 17.2615C26.5738 18.427 28.224 18.9783 29.5904 18.4933C30.9568 18.0083 31.552 16.6598 30.8554 15.5052C30.0992 14.2532 28.7989 13.9897 27.4826 14.5545C26.0373 15.1737 25.2384 16.0968 25.9061 17.2615Z" fill="#FC5954"/>
<path d="M31.7163 17.2858C31.4354 17.1474 31.1979 16.9609 31.0215 16.7402C30.8451 16.5195 30.7344 16.2703 30.6976 16.0112C30.6574 15.7166 30.5614 15.4284 30.4128 15.1561C29.4379 13.3537 28.2421 13.3881 27.056 13.8085C26.6047 13.9735 26.2458 14.2627 26.0469 14.6216C25.9427 14.797 25.7764 14.945 25.568 15.0479C25.1221 15.2742 24.7989 15.6226 24.661 16.0257C24.523 16.4288 24.5802 16.8578 24.8213 17.2296C24.9245 17.3838 24.9827 17.5542 24.9917 17.7284C25.0007 17.9026 24.9604 18.0761 24.8736 18.2365C24.573 18.7667 24.5227 19.3639 24.7317 19.9206C24.7959 20.1003 24.807 20.2891 24.7641 20.4727C24.7212 20.6562 24.6255 20.8296 24.4843 20.9796C24.2073 21.279 24.0203 21.6239 23.9373 21.9884C23.8544 22.3529 23.8777 22.7275 24.0055 23.0838C24.1333 23.4402 24.3623 23.7691 24.6751 24.0458C24.988 24.3225 25.3766 24.5397 25.8116 24.681C26.2467 24.8224 26.7168 24.8843 27.1867 24.8619C27.6565 24.8396 28.1138 24.7336 28.5241 24.5521C28.9343 24.3705 29.2868 24.1181 29.5551 23.8138C29.8233 23.5095 30.0002 23.1613 30.0725 22.7954C30.1195 22.5347 30.2506 22.2878 30.4534 22.0783C30.6562 21.8688 30.9239 21.7037 31.2309 21.5988L31.3056 21.5737C33.6843 20.7337 33.6405 18.2583 31.7163 17.2858Z" fill="#32285F"/>
<path d="M39.3365 18.2608C37.9306 18.4068 32.113 19.3986 31.3856 19.8551C31.3856 19.8551 30.6485 22.7467 33.2704 22.443C35.8922 22.1392 40.9504 20.8805 41.136 19.7905C41.3322 18.6518 39.3365 18.2608 39.3365 18.2608Z" fill="#FF6196"/>
<path d="M33.3034 23.5951C33.2725 22.4556 33.2117 20.4174 33.2117 20.4174C32.5984 20.174 31.9647 19.9638 31.3152 19.788L24.6058 20.8235C24.6058 20.8235 24.8128 23.867 25.9808 26.6042C28.3274 32.1163 29.9008 31.9435 31.8581 31.0431C31.8581 31.0431 32.7264 28.1683 33.1242 25.9597C33.1242 25.9597 33.7194 25.703 33.7194 24.9897C33.7194 24.8571 33.3098 23.8493 33.3034 23.5951Z" fill="#FF6196"/>
<path d="M25.6053 23.8669L26.9376 27.9736" stroke="#FF4181" stroke-width="1.19" stroke-miterlimit="10" stroke-linecap="round"/>
<path d="M27.0933 19.7704C27.0933 19.7704 29.1829 23.5103 30.0629 23.7042C30.9429 23.898 31.648 19.7335 31.648 19.7335L27.0933 19.7704Z" fill="#FF926E"/>
<path d="M32.8064 28.451L32.8491 27.6119C31.4912 28.1078 28.9792 27.883 26.2539 27.528L26.2262 28.5215C26.2262 28.5215 23.327 29.8641 23.7675 35.3427C24.143 40.0216 25.5808 49.1881 25.5808 49.1881L27.6075 49.2141L29.711 35.4585L30.3936 39.8269L31.7515 49.2057H33.904L35.1136 39.9209C35.6171 35.0834 34.9227 29.3346 32.8064 28.451Z" fill="#823264"/>
<path d="M29.344 20.6749C29.344 20.6749 29.089 20.3074 28.8896 20.3645C28.6901 20.4215 27.7834 20.5088 27.7834 20.5088C27.7834 20.5088 28.7146 20.5138 28.8778 20.607C29.041 20.7001 29.409 20.7589 29.344 20.6749Z" fill="#F57356"/>
<path d="M29.8336 20.6422C29.8336 20.6422 29.9285 20.2781 30.2208 20.2797C30.4341 20.2797 31.1616 20.3108 31.1616 20.3108C31.1616 20.3108 30.4224 20.4048 30.2794 20.5172C30.1365 20.6296 29.7856 20.7362 29.8336 20.6422Z" fill="#F57356"/>
<path d="M28.1451 17.6969L28.2336 20.2596L30.3691 20.127L30.1451 17.6818L28.1451 17.6969Z" fill="#FF926E"/>
<path d="M30.8395 18.8558C29.8731 19.1553 27.8678 18.6955 27.4859 17.9327C27.4859 17.9327 26.7392 16.8201 26.832 16.3753C26.992 15.6042 28.8971 14.9488 29.7206 14.8129C30.9824 14.6115 31.6267 16.3963 31.6267 16.3963C32.4267 17.7892 31.2619 18.724 30.8395 18.8558Z" fill="#FF8F6A"/>
<path d="M30.145 17.6818L28.16 17.6969C28.1687 17.7911 28.2016 17.8829 28.2566 17.9668C28.3116 18.0507 28.3876 18.1251 28.48 18.1853C28.5322 18.9707 29.5605 19.5379 30.3136 19.5379L30.145 17.6818Z" fill="#32285F"/>
<path d="M30.8395 18.8558C29.8731 19.1553 27.8678 18.6955 27.4859 17.9327C27.4859 17.9327 26.7392 16.8201 26.832 16.3753C26.992 15.6042 28.8971 14.9488 29.7206 14.8129C30.9824 14.6115 31.6267 16.3963 31.6267 16.3963C32.4267 17.7892 31.2619 18.724 30.8395 18.8558Z" fill="#FF8F6A"/>
<path d="M26.6667 17.8312C26.8501 18.1517 27.3707 18.2977 27.8699 18.145L27.2715 16.9627C26.7733 17.1179 26.3403 17.2564 26.6667 17.8312Z" fill="#FF926E"/>
<path d="M27.0763 17.4687C27.0722 17.4589 27.0641 17.4504 27.0532 17.4446C27.0423 17.4387 27.0293 17.4359 27.0162 17.4365C27.0031 17.437 26.9906 17.441 26.9806 17.4477C26.9706 17.4545 26.9638 17.4636 26.9611 17.4737C26.9459 17.5203 26.9463 17.5692 26.9621 17.6157C26.978 17.6621 27.0089 17.7046 27.0517 17.7389C27.2043 17.8648 27.4325 17.9621 27.4784 17.8774C27.5243 17.7926 27.4507 17.832 27.2395 17.6734C27.1645 17.6168 27.1085 17.5465 27.0763 17.4687V17.4687Z" fill="#F57356"/>
<path d="M26.5525 15.4926C27.1637 15.0663 29.8069 14.207 29.8069 14.207C29.8069 14.207 29.7322 15.0671 28.8469 15.9121C28.5808 16.1525 28.2793 16.3672 27.9488 16.5515C27.7827 16.6457 27.6543 16.7753 27.5787 16.925C27.5031 17.0747 27.4834 17.2383 27.5221 17.3965V17.3965L27.4656 17.3285C27.3852 17.2311 27.2616 17.1607 27.1189 17.1309C26.9762 17.1011 26.8245 17.1142 26.6933 17.1674V17.1674C26.6933 17.1674 25.9413 15.9197 26.5525 15.4926Z" fill="#32285F"/>
<path d="M31.1872 16.5306C31.2405 16.6246 31.2149 16.7244 31.1285 16.7555C31.0421 16.7865 30.9291 16.7353 30.8757 16.6414C30.8224 16.5474 30.848 16.4475 30.9344 16.4173C31.0208 16.3871 31.1339 16.4358 31.1872 16.5306Z" fill="#281923"/>
<path d="M29.6128 17.0063C29.6407 17.0427 29.6501 17.086 29.639 17.1276C29.6279 17.1692 29.5972 17.2059 29.553 17.2304C29.4677 17.2614 29.3546 17.2102 29.3002 17.1171C29.2723 17.0807 29.2629 17.0374 29.274 16.9958C29.2851 16.9542 29.3158 16.9175 29.36 16.8931C29.4464 16.8662 29.5594 16.9132 29.6128 17.0063Z" fill="#281923"/>
<path d="M28.6613 16.8662C28.6613 16.8662 29.0709 16.4332 29.7141 16.4928" stroke="#F57356" stroke-width="0.99" stroke-miterlimit="10"/>
<path d="M31.2907 15.9314C31.1024 15.9145 30.9118 15.938 30.7392 15.9994C30.2837 16.1588 30.0928 16.601 30.3808 16.9224C30.4035 16.9475 30.4285 16.9714 30.4554 16.9937C30.7925 17.269 30.9888 17.3202 30.705 17.4569" stroke="#F57356" stroke-width="0.99" stroke-miterlimit="10"/>
<path d="M30.2133 18.0779C30.2133 18.0779 31.0421 18.6494 31.1808 17.7733L30.2133 18.0779Z" fill="white"/>
<path d="M29.0304 17.7523C29.0366 17.763 29.0387 17.775 29.0363 17.7866C29.0339 17.7983 29.0272 17.8091 29.017 17.8177C29.0068 17.8264 28.9936 17.8324 28.979 17.8351C28.9644 17.8379 28.9492 17.8371 28.9351 17.833C28.9211 17.8289 28.9089 17.8216 28.9001 17.812C28.8914 17.8025 28.8864 17.7911 28.8859 17.7793C28.8853 17.7675 28.8892 17.7559 28.8971 17.7458C28.905 17.7358 28.9165 17.7279 28.9301 17.723C28.9484 17.7164 28.9692 17.7158 28.988 17.7213C29.0068 17.7268 29.022 17.738 29.0304 17.7523V17.7523Z" fill="#F57356"/>
<path d="M29.4197 17.7935C29.4215 17.7965 29.4225 17.7998 29.4227 17.8031C29.4228 17.8064 29.4221 17.8097 29.4207 17.8129C29.4192 17.816 29.4169 17.8188 29.414 17.8213C29.4111 17.8237 29.4076 17.8257 29.4037 17.827C29.3958 17.8299 29.3868 17.8302 29.3786 17.8278C29.3704 17.8254 29.3637 17.8206 29.36 17.8144C29.3567 17.8081 29.3566 17.801 29.3598 17.7946C29.363 17.7882 29.3692 17.783 29.3771 17.78C29.381 17.7786 29.3852 17.7779 29.3895 17.7778C29.3938 17.7778 29.398 17.7784 29.402 17.7796C29.406 17.7809 29.4096 17.7828 29.4127 17.7851C29.4157 17.7875 29.4181 17.7903 29.4197 17.7935V17.7935Z" fill="#F57356"/>
<path d="M29.1306 18.0712C29.1379 18.0839 29.1385 18.0983 29.1323 18.1113C29.1261 18.1244 29.1136 18.135 29.0976 18.1408C29.0855 18.1452 29.072 18.1467 29.0588 18.1451C29.0457 18.1434 29.0334 18.1387 29.0237 18.1316C29.0139 18.1245 29.007 18.1152 29.004 18.105C29.0009 18.0949 29.0017 18.0842 29.0064 18.0743C29.011 18.0645 29.0193 18.056 29.0301 18.0499C29.041 18.0438 29.0538 18.0403 29.0672 18.04C29.0805 18.0397 29.0936 18.0424 29.1049 18.048C29.1162 18.0535 29.1252 18.0616 29.1306 18.0712Z" fill="#F57356"/>
<path d="M28.6816 17.9621C28.6847 17.9674 28.6858 17.9733 28.6847 17.979C28.6836 17.9848 28.6803 17.9902 28.6753 17.9945C28.6703 17.9988 28.6638 18.0018 28.6566 18.0032C28.6494 18.0045 28.6418 18.0042 28.6349 18.0022C28.6279 18.0001 28.6219 17.9965 28.6175 17.9918C28.6132 17.9871 28.6107 17.9815 28.6105 17.9756C28.6102 17.9698 28.6122 17.964 28.6161 17.9591C28.62 17.9541 28.6257 17.9502 28.6325 17.9478C28.6414 17.9447 28.6516 17.9444 28.6607 17.9471C28.6699 17.9497 28.6774 17.9551 28.6816 17.9621V17.9621Z" fill="#F57356"/>
<path d="M29.5626 18.0771C29.5657 18.0823 29.5674 18.0879 29.5676 18.0937C29.5679 18.0994 29.5667 18.1052 29.5641 18.1105C29.5615 18.1159 29.5576 18.1208 29.5526 18.125C29.5476 18.1292 29.5416 18.1326 29.5349 18.135C29.5279 18.1373 29.5204 18.1386 29.5127 18.1387C29.5051 18.1387 29.4976 18.1376 29.4905 18.1354C29.4834 18.1332 29.4769 18.1299 29.4715 18.1257C29.466 18.1215 29.4616 18.1165 29.4586 18.111C29.4556 18.1055 29.454 18.0996 29.4539 18.0936C29.4538 18.0876 29.4552 18.0817 29.458 18.0761C29.4609 18.0705 29.4651 18.0654 29.4704 18.0611C29.4757 18.0568 29.482 18.0534 29.489 18.051C29.496 18.0488 29.5035 18.0476 29.5111 18.0477C29.5186 18.0478 29.5261 18.0491 29.533 18.0516C29.5399 18.054 29.546 18.0575 29.5512 18.0619C29.5563 18.0663 29.5602 18.0714 29.5626 18.0771V18.0771Z" fill="#F57356"/>
<path d="M29.7142 17.5535C29.7168 17.5582 29.7182 17.5632 29.7184 17.5683C29.7185 17.5734 29.7174 17.5785 29.715 17.5833C29.7126 17.5881 29.709 17.5924 29.7045 17.5961C29.7 17.5997 29.6945 17.6027 29.6885 17.6047C29.6827 17.6069 29.6763 17.6082 29.6698 17.6084C29.6633 17.6086 29.6568 17.6078 29.6508 17.606C29.6447 17.6042 29.6391 17.6014 29.6344 17.5979C29.6297 17.5943 29.626 17.5901 29.6235 17.5854C29.6197 17.5759 29.6207 17.5657 29.6262 17.5567C29.6318 17.5478 29.6415 17.541 29.6534 17.5375C29.6643 17.5344 29.6763 17.5342 29.6873 17.5371C29.6984 17.54 29.7078 17.5458 29.7142 17.5535Z" fill="#F57356"/>
<path d="M29.76 17.8295C29.7506 17.8131 29.7498 17.7945 29.7578 17.7777C29.7658 17.7609 29.7819 17.7472 29.8027 17.7397C29.813 17.736 29.8242 17.734 29.8356 17.7337C29.847 17.7334 29.8583 17.7349 29.8689 17.738C29.8796 17.7412 29.8893 17.7459 29.8977 17.7521C29.906 17.7582 29.9126 17.7655 29.9173 17.7737C29.922 17.7818 29.9246 17.7906 29.925 17.7996C29.9254 17.8085 29.9235 17.8175 29.9195 17.8258C29.9155 17.8342 29.9094 17.8419 29.9016 17.8484C29.8938 17.8549 29.8845 17.8602 29.8741 17.8639C29.8638 17.8675 29.8526 17.8695 29.8412 17.8698C29.8299 17.87 29.8186 17.8685 29.808 17.8653C29.7974 17.8621 29.7877 17.8573 29.7795 17.8512C29.7712 17.845 29.7646 17.8376 29.76 17.8295V17.8295Z" fill="#F57356"/>
<path d="M31.2949 16.9879C31.3021 17.0004 31.3027 17.0147 31.2965 17.0277C31.2903 17.0406 31.2778 17.051 31.2618 17.0567C31.2539 17.0596 31.2454 17.0612 31.2367 17.0615C31.228 17.0618 31.2193 17.0607 31.2111 17.0582C31.2029 17.0558 31.1955 17.0521 31.1892 17.0474C31.1829 17.0426 31.1778 17.037 31.1744 17.0307C31.1706 17.0244 31.1684 17.0176 31.168 17.0107C31.1676 17.0038 31.169 16.9969 31.172 16.9904C31.175 16.9839 31.1797 16.978 31.1857 16.9729C31.1917 16.9678 31.1989 16.9638 31.2069 16.9609C31.2149 16.9581 31.2236 16.9565 31.2324 16.9563C31.2412 16.9561 31.2499 16.9573 31.2581 16.9598C31.2663 16.9624 31.2738 16.9661 31.2801 16.9709C31.2864 16.9757 31.2914 16.9815 31.2949 16.9879V16.9879Z" fill="#F57356"/>
<path d="M31.536 17.2967C31.5286 17.2795 31.5296 17.2607 31.5388 17.2441C31.548 17.2274 31.5648 17.2141 31.5858 17.2066C31.6069 17.1992 31.6307 17.1982 31.6527 17.2038C31.6746 17.2094 31.6931 17.2213 31.7045 17.2371C31.7109 17.2459 31.7149 17.2557 31.7162 17.2659C31.7175 17.276 31.7161 17.2862 31.7121 17.2959C31.7081 17.3055 31.7015 17.3144 31.6929 17.322C31.6842 17.3296 31.6737 17.3356 31.6619 17.3398C31.6501 17.344 31.6373 17.3461 31.6244 17.3462C31.6115 17.3463 31.5987 17.3442 31.5868 17.3401C31.575 17.3361 31.5643 17.3301 31.5556 17.3226C31.5468 17.3152 31.5402 17.3063 31.536 17.2967V17.2967Z" fill="#F57356"/>
<path d="M31.6981 16.9384C31.7027 16.9461 31.7042 16.9547 31.7026 16.9631C31.7009 16.9715 31.6961 16.9793 31.6888 16.9855C31.6815 16.9918 31.6719 16.9961 31.6614 16.9981C31.6509 17.0001 31.6399 16.9996 31.6298 16.9966C31.6197 16.9936 31.6109 16.9883 31.6046 16.9814C31.5983 16.9745 31.5948 16.9663 31.5944 16.9578C31.5941 16.9493 31.597 16.941 31.6027 16.9338C31.6085 16.9266 31.6168 16.9209 31.6266 16.9174C31.6397 16.9128 31.6545 16.9125 31.6678 16.9164C31.6812 16.9203 31.6921 16.9282 31.6981 16.9384V16.9384Z" fill="#F57356"/>
<path d="M27.7856 17.1952C28.314 16.9065 28.8068 16.5795 29.2576 16.2185C30.0843 15.5698 29.8528 14.9086 30.1984 14.7987C30.576 14.6795 31.1584 15.6948 31.5904 15.6244C31.5904 15.6244 31.3387 14.1702 29.9723 13.9302C29.0891 13.7749 26.0139 14.9094 27.7856 17.1952Z" fill="#32285F"/>
<path d="M26.2261 28.514C26.2261 28.514 30.5813 29.333 32.8064 28.451" stroke="#AA3C6E" stroke-width="1.19" stroke-miterlimit="10" stroke-linecap="round"/>
<path d="M31.376 28.8001C31.3429 29.4924 31.3429 30.449 31.3429 31.2142C31.3429 31.5969 30.6133 31.7882 30.3701 32.1708C29.6405 34.658 28.0736 46.6615 27.6149 49.2049" stroke="#AA3C6E" stroke-width="1.19" stroke-miterlimit="10" stroke-linecap="round"/>
<path d="M32.1002 27.8058L32.0522 28.6734" stroke="#AA3C6E" stroke-width="1.19" stroke-miterlimit="10" stroke-linecap="round"/>
<path d="M32.7168 29.4286C32.7168 29.4286 33.5701 31.4878 34.4629 31.1354" stroke="#AA3C6E" stroke-width="1.19" stroke-miterlimit="10" stroke-linecap="round"/>
<path d="M26.896 29.2297C26.896 29.2297 25.616 31.7706 24.0234 31.4114" stroke="#AA3C6E" stroke-width="1.19" stroke-miterlimit="10" stroke-linecap="round"/>
<path d="M32.9962 22.0562C32.9962 22.0562 33.2832 23.7528 33.6362 24.6331C33.8325 25.1214 33.6533 25.4764 33.4549 25.6954C33.3701 25.789 33.2581 25.8652 33.1282 25.9178C32.9983 25.9703 32.8543 25.9977 32.7082 25.9975C32.2774 25.9984 31.8607 25.8768 31.5349 25.6551" stroke="#FF4181" stroke-width="1.19" stroke-miterlimit="10" stroke-linecap="round"/>
<path d="M31.7408 28.2841C31.7408 28.3173 31.7283 28.3497 31.7049 28.3773C31.6814 28.4049 31.6481 28.4264 31.6091 28.4391C31.5701 28.4518 31.5272 28.4552 31.4859 28.4487C31.4445 28.4422 31.4065 28.4262 31.3766 28.4028C31.3468 28.3793 31.3265 28.3494 31.3182 28.3168C31.31 28.2843 31.3142 28.2505 31.3304 28.2199C31.3465 28.1892 31.3739 28.163 31.409 28.1446C31.444 28.1261 31.4853 28.1163 31.5275 28.1163C31.5841 28.1163 31.6383 28.134 31.6783 28.1654C31.7183 28.1969 31.7408 28.2396 31.7408 28.2841Z" stroke="#AA3C6E" stroke-width="1.19" stroke-miterlimit="10" stroke-linecap="round"/>
<path d="M27.0848 25.5796C27.0848 25.5796 28.6229 26.4346 30.0501 25.5796" stroke="#FF4181" stroke-width="1.19" stroke-miterlimit="10" stroke-linecap="round"/>
<path d="M24.7253 20.8285C24.7253 20.8285 23.2586 20.5382 21.921 23.9282C20.5834 27.3183 19.5744 27.8469 19.8592 28.5652C20.144 29.2835 22.113 29.7936 23.1381 28.3772C23.7173 27.575 26.0768 25.3421 26.2069 24.2219C26.337 23.1017 25.2138 20.7807 24.7253 20.8285Z" fill="#FF6196"/>
<path d="M25.7856 24.4023C25.7856 24.4023 26.5472 22.8566 25.6053 21.2657" stroke="#FF4181" stroke-width="1.19" stroke-miterlimit="10" stroke-linecap="round"/>
<path d="M25.7344 49.1806L25.7067 49.0044" stroke="#AA3C6E" stroke-width="1.07" stroke-miterlimit="10"/>
<path d="M25.6789 48.8365L25.5723 48.2047C25.1328 45.47 24.7979 42.5826 24.3584 39.8521C24.3584 39.8521 23.6405 33.7408 24.1451 31.7076" stroke="#AA3C6E" stroke-width="1.07" stroke-miterlimit="10" stroke-dasharray="4.21 2.04"/>
<path d="M24.176 31.6212C24.1941 31.5591 24.2122 31.5012 24.2325 31.4484" stroke="#AA3C6E" stroke-width="1.07" stroke-miterlimit="10"/>
<path d="M32.032 49.1806C31.6171 46.1421 31.392 43.1935 30.7381 40.0191L29.7184 35.4493" stroke="#AA3C6E" stroke-width="1.07" stroke-miterlimit="10" stroke-dasharray="4.27 2.07"/>
<path d="M27.7013 18.2088C27.7013 18.2088 28.8864 18.7802 29.1882 19.887C29.4314 20.784 27.2853 21.4301 27.3322 22.0561C27.3322 22.0561 25.4549 21.6785 25.8069 20.9242C26.1589 20.1698 26.4874 19.861 26.1589 19.4431C25.8304 19.0252 26.1333 17.7716 27.7013 18.2088Z" fill="#32285F"/>
<path d="M42.9504 15.7619C42.9504 15.7619 43.7355 15.8274 44.0694 15.4724C44.4032 15.1175 44.832 14.7642 45.1638 14.7466C45.4955 14.729 46.1344 14.7768 46.1408 14.5788C46.1408 14.5788 45.3707 14.411 44.9312 14.4949C44.4918 14.5788 45.1126 14.1198 45.1126 14.1198C45.1126 14.1198 46.3168 13.6574 46.1216 13.4334L45.855 13.477C45.855 13.477 46.1664 13.3847 46.0683 13.2555C46.0683 13.2555 45.215 13.3671 45.0166 13.4577C44.8182 13.5484 44.2699 13.8555 44.2699 13.8555C44.2699 13.8555 44.6507 13.4233 44.8939 13.3008C45.1371 13.1783 45.6555 12.9173 45.5136 12.6799L44.6048 13.0994L44.0214 13.4451C44.0214 13.4451 43.2854 14.1416 43.1126 14.3891C42.9398 14.6367 42.2486 15.6361 42.9504 15.7619Z" fill="#FA735F"/>
<path d="M43.232 15.9709C43.232 15.9709 42.895 15.7091 43.1872 15.4406C43.4795 15.172 43.9008 15.0907 43.5744 14.3556C43.5744 14.3556 44.3062 13.6054 43.9083 13.2396C43.9083 13.2396 43.0347 14.0787 42.8491 14.2297C42.6635 14.3808 42.7499 15.1032 42.2091 15.652C41.6683 16.2008 38.6987 18.4362 38.5952 19.4138C38.4918 20.3913 40.4022 20.7992 41.4752 19.1016C41.8848 18.4605 43.232 15.9709 43.232 15.9709Z" fill="#FFA182"/>
<path d="M18.9205 35.9183L19.7397 36.9521C19.8103 36.8246 19.843 36.6861 19.8354 36.5471C19.8278 36.4081 19.7801 36.2723 19.696 36.1499C19.5185 35.8727 19.3104 35.6082 19.0741 35.3595L18.9205 35.9183Z" fill="#FA735F"/>
<path d="M18.7968 35.5038L20.1696 35.9141C20.1696 35.9141 20.0629 35.5902 19.5083 35.3351C19.4197 35.294 19.5467 34.3593 19.5467 34.3593L18.7968 35.5038Z" fill="#FA735F"/>
<path d="M22.2581 27.3552C22.2581 27.3552 23.0891 28.3697 21.9317 29.6208C21.0389 30.5849 19.9125 32.4738 19.7493 32.9571C19.7493 32.9571 20.2336 33.8558 20.3179 34.3274C20.4021 34.799 20.0811 35.7463 20.0811 35.7463C20.0811 35.7463 19.5605 35.6389 19.648 34.8787C19.6971 34.4591 19.5467 34.361 19.5467 34.361L19.2736 35.5785C19.2736 35.5785 19.6533 37.0831 19.0261 37.1502L18.5803 35.3494C18.5803 35.3494 18.6955 33.6872 18.5984 33.041C18.5013 32.3949 19.7931 27.6833 20.8224 27.1672C21.6661 26.7401 22.2581 27.3552 22.2581 27.3552Z" fill="#FFA182"/>
</g>
<defs>
<linearGradient id="paint0_linear_1280_519" x1="46.5419" y1="9.10523" x2="38.9528" y2="10.9906" gradientUnits="userSpaceOnUse">
<stop stop-color="#73C8F0"/>
<stop offset="1" stop-color="#96DBBF"/>
</linearGradient>
<clipPath id="clip0_1280_519">
<rect width="80" height="53.33" fill="white"/>
</clipPath>
</defs>
</svg>
