<svg width="30" height="30" viewBox="0 0 30 30" fill="none" xmlns="http://www.w3.org/2000/svg">
<path d="M6.25 3.75H13.75C14.7446 3.75 15.6984 4.14509 16.4017 4.84835C17.1049 5.55161 17.5 6.50544 17.5 7.5V12.5H16.25V7.5C16.25 6.83696 15.9866 6.20107 15.5178 5.73223C15.0489 5.26339 14.413 5 13.75 5H6.25C5.58696 5 4.95107 5.26339 4.48223 5.73223C4.01339 6.20107 3.75 6.83696 3.75 7.5V23.75C3.75 24.413 4.01339 25.0489 4.48223 25.5178C4.95107 25.9866 5.58696 26.25 6.25 26.25H13.75C14.413 26.25 15.0489 25.9866 15.5178 25.5178C15.9866 25.0489 16.25 24.413 16.25 23.75V18.75H17.5V23.75C17.5 24.7446 17.1049 25.6984 16.4017 26.4017C15.6984 27.1049 14.7446 27.5 13.75 27.5H6.25C5.25544 27.5 4.30161 27.1049 3.59835 26.4017C2.89509 25.6984 2.5 24.7446 2.5 23.75V7.5C2.5 6.50544 2.89509 5.55161 3.59835 4.84835C4.30161 4.14509 5.25544 3.75 6.25 3.75ZM10 15H24.0625L20 10.9375L20.83 10L26.455 15.625L20.83 21.25L20 20.3125L24.0625 16.25H10V15Z" fill="black"/>
</svg>
