<svg width="80" height="54" viewBox="0 0 80 54" fill="none" xmlns="http://www.w3.org/2000/svg">
<g clip-path="url(#clip0_1280_405)">
<path d="M2.91272 53.1217C2.91272 53.1217 -0.951647 47.7842 0.221556 39.8048C1.11143 33.7465 1.82133 32.3465 10.6343 25.9677C19.1375 19.8129 11.8497 1.58724 33.6347 2.11306C46.906 2.43351 51.7219 -3.49285 61.4618 3.21019C70.7731 9.6193 62.0431 16.2896 76.4749 27.7461C81.6755 31.8744 81.1967 48.8896 74.5335 53.0445L2.91272 53.1217Z" fill="#EBF3FA"/>
<path d="M60.6569 52.0244H55.6105V51.84H60.6569C61.3382 51.8391 61.9914 51.5138 62.4731 50.9356C62.9548 50.3573 63.2257 49.5732 63.2264 48.7554V34.4779H63.3803V48.7551C63.3793 49.6217 63.0921 50.4526 62.5816 51.0655C62.0711 51.6784 61.379 52.0232 60.6569 52.0244V52.0244Z" fill="white"/>
<path d="M60.6627 51.9503H55.6168V51.9134H60.6627C61.3603 51.9125 62.0291 51.5795 62.5223 50.9874C63.0156 50.3953 63.2931 49.5924 63.2938 48.7551V34.4779H63.3248V48.7551C63.324 49.6022 63.0432 50.4144 62.5442 51.0135C62.0451 51.6125 61.3684 51.9494 60.6627 51.9503V51.9503Z" fill="#D14842"/>
<path d="M63.9564 34.0751C63.9517 34.0321 63.9373 33.9915 63.9147 33.9576C63.8837 33.8433 63.8628 33.7254 63.8522 33.6058C63.8559 33.5166 63.766 33.5493 63.7256 33.6199C63.7126 33.6437 63.7319 33.7419 63.729 33.7719C63.601 33.6854 63.4009 33.5996 63.0877 33.5417C63.0877 33.5417 62.8475 33.4849 62.9872 33.7485C63.0805 33.9242 63.1715 33.9345 63.3067 34.1799C63.442 34.4252 63.6601 34.5748 63.8372 34.5317L64.0382 34.5813L64.1966 34.2078L63.9564 34.0751Z" fill="#FFB27D"/>
<path d="M68.6362 33.5362C68.6362 33.5362 69.5993 37.965 66.6711 37.229C65.8805 37.0302 63.7744 34.5106 63.7744 34.5106C63.7744 34.5106 63.977 34.1268 64.2265 34.1661C64.2265 34.1661 66.2614 34.9603 66.5867 35.248C66.7669 35.4072 66.9727 32.898 67.596 32.9339C68.2192 32.9697 68.6362 33.5362 68.6362 33.5362Z" fill="#9DB0F4"/>
<path d="M69.9556 52.2632C69.9556 52.2632 69.9019 53.3045 69.734 53.3197C69.7116 53.3217 68.8825 53.3217 68.8825 53.3217L67.8242 53.3142C67.8242 53.3142 67.831 53.0082 68.1399 52.9434C68.4488 52.8786 68.9669 52.6178 69.1544 52.1268C69.3522 51.6102 69.9556 52.2632 69.9556 52.2632Z" fill="#163560"/>
<path d="M70.0168 52.3352C70.0168 52.3352 69.695 52.4644 69.4426 52.4644C69.2618 52.4616 69.0821 52.4308 68.9079 52.3728C68.9079 52.3728 68.847 51.6698 68.5137 50.1203C68.3389 49.3081 68.0895 48.2641 67.7344 46.9664C66.7526 43.3804 66.4541 41.2809 66.4268 41.0841C66.4254 41.0734 66.4248 41.0683 66.4248 41.0683L66.428 41.0666L69.4467 39.4756C69.4467 39.4756 69.0735 44.4182 69.5494 46.3151C69.6215 46.6139 69.679 46.9174 69.7217 47.2241C70.0236 49.2843 70.0168 52.3352 70.0168 52.3352Z" fill="#2B478B"/>
<path d="M69.723 47.2227L68.5148 50.1172C68.34 49.305 68.0905 48.261 67.7355 46.9633C66.7537 43.3773 66.4552 41.2778 66.4279 41.081C66.4279 41.0752 66.4279 41.0693 66.4279 41.0635L69.4466 39.4756C69.4466 39.4756 69.0734 44.4182 69.5494 46.3151C69.6219 46.6134 69.6798 46.9164 69.723 47.2227V47.2227Z" fill="#233862"/>
<path d="M67.5982 52.2632C67.5982 52.2632 67.5443 53.3045 67.3763 53.3197C67.3542 53.3217 66.5249 53.3217 66.5249 53.3217L65.4666 53.3142C65.4666 53.3142 65.4734 53.0082 65.7823 52.9434C66.0912 52.8786 66.6096 52.6178 66.7971 52.1268C66.9946 51.6102 67.5982 52.2632 67.5982 52.2632Z" fill="#163560"/>
<path d="M65.8871 39.5921C65.8871 39.5921 65.8478 42.7967 66.3097 46.7272C66.7715 50.6578 66.6148 52.3287 66.6148 52.3287C66.6148 52.3287 66.9306 52.452 67.0598 52.4644C67.3859 52.4965 67.72 52.3728 67.72 52.3728C67.72 52.3728 68.3802 48.4391 68.1913 46.4709C68.0025 44.5027 69.0961 39.7172 69.0961 39.7172L65.8871 39.5921Z" fill="#2B478B"/>
<path d="M68.0854 31.9715L67.556 32.5293L66.6909 32.4835C66.6929 32.3998 66.7087 32.0517 66.7233 31.7365C66.7233 31.7179 66.7253 31.6992 66.7259 31.6813C66.7388 31.4129 66.7497 31.1824 66.7497 31.1824L67.488 30.6311L67.7633 30.4243C67.7633 30.4302 67.7748 30.7179 67.7765 30.7599C67.8081 31.508 68.0854 31.9715 68.0854 31.9715Z" fill="#FFB27D"/>
<path d="M65.7108 39.731C65.7229 41.4211 65.8168 45.3758 65.8859 45.4565C66.6194 46.3062 69.8456 45.2232 70.0167 44.287C70.1878 43.3508 69.3668 32.2813 68.1138 31.8395C67.854 31.7479 66.4641 32.2875 66.4641 32.2875C66.3109 32.7946 66.1903 33.315 66.1033 33.8443C66.0501 34.1671 65.8773 36.4727 65.7763 38.0136C65.7496 38.424 65.7278 38.7803 65.7149 39.0301C65.7097 39.1332 65.7085 39.3847 65.7108 39.731Z" fill="#AEC3FF"/>
<path d="M67.7188 30.7865C67.5874 31.1676 66.9788 31.579 66.7233 31.7379C66.7233 31.7193 66.7253 31.7007 66.7259 31.6827C66.7388 31.4143 66.7497 31.1838 66.7497 31.1838L67.4881 30.6325C67.6617 30.5997 67.7734 30.6287 67.7188 30.7865Z" fill="#FCA56B"/>
<path d="M66.4768 31.2199C66.4768 31.2199 67.8127 31.3691 67.8773 30.3688C67.9419 29.3685 68.1578 28.7149 67.3075 28.5771C66.4572 28.4392 66.2666 28.8058 66.1776 29.1335C66.0887 29.4612 66.1311 31.1555 66.4768 31.2199Z" fill="#FFB27D"/>
<path d="M66.2107 29.0291C66.2107 29.0291 66.4848 30.1035 66.6651 30.0081C66.8453 29.9126 67.0095 29.8334 67.0408 30.1704C67.0721 30.5074 66.8778 30.9556 67.4694 30.8654C68.061 30.7751 68.578 28.7635 68.3593 28.4619C67.7243 27.5974 65.332 28.0009 66.2107 29.0291Z" fill="#163560"/>
<path d="M66.8057 31.8636C66.8221 31.8554 67.759 31.3509 67.8678 31.3943C67.9766 31.4377 68.1141 31.8395 68.1141 31.8395L66.4641 32.2875C66.4641 32.2875 66.5939 31.9701 66.8057 31.8636Z" fill="#9DB0F4"/>
<path d="M65.7108 39.731C68.2212 37.5519 68.2901 34.5803 68.2901 34.5803C67.0956 35.389 66.1443 36.5443 65.7763 38.0133C65.7496 38.4237 65.7278 38.78 65.7149 39.0298C65.7097 39.1331 65.7085 39.3847 65.7108 39.731Z" fill="#9DB0F4"/>
<path d="M61.6711 30.7582H61.2529V53.0468H61.6711V30.7582Z" fill="white"/>
<path d="M62.6233 31.5504H63.9624V33.6868C63.9624 33.8965 63.893 34.0977 63.7695 34.246C63.6459 34.3943 63.4783 34.4776 63.3036 34.4776H63.2821C63.1074 34.4776 62.9398 34.3943 62.8162 34.246C62.6927 34.0977 62.6233 33.8965 62.6233 33.6868V31.5504V31.5504Z" fill="white"/>
<path d="M62.7303 33.1827H63.8547V33.6578C63.8547 33.8369 63.7955 34.0086 63.69 34.1352C63.5846 34.2618 63.4415 34.3329 63.2924 34.3329C63.1432 34.3329 63.0002 34.2618 62.8947 34.1352C62.7893 34.0086 62.73 33.8369 62.73 33.6578V33.1827H62.7303Z" fill="#D14842"/>
<path d="M64.2483 30.7582H61.2529V31.1584H64.2483V30.7582Z" fill="white"/>
<path d="M63.4224 31.158H63.1917V31.6413H63.4224V31.158Z" fill="white"/>
<path d="M62.0362 38.0349C62.0169 37.9983 61.9896 37.9686 61.9573 37.9491C61.9111 37.8961 61.7899 37.7286 61.7747 37.6852C61.7274 37.5474 61.6599 37.6273 61.6806 37.7562C61.6849 37.7841 61.7162 37.8451 61.7239 37.8737C61.5775 37.8599 61.3657 37.882 61.0611 37.9871C61.0611 37.9871 60.8231 38.056 61.0419 38.2248C61.188 38.3371 61.2741 38.301 61.4822 38.4557C61.6903 38.6104 61.9415 38.6366 62.0871 38.5084L62.2857 38.4529L62.2995 38.0343L62.0362 38.0349Z" fill="#FFB27D"/>
<path d="M67.596 32.9352C67.596 32.9352 70.0414 34.1516 65.981 37.7562C65.3314 38.3327 62.2007 38.6114 62.2007 38.6114C62.2007 38.6114 62.0859 38.178 62.2739 37.9754C62.2739 37.9754 64.7472 36.6884 64.9981 36.7211C65.2206 36.75 66.2325 34.0513 66.6579 33.5024C67.0833 32.9535 67.596 32.9352 67.596 32.9352Z" fill="#AEC3FF"/>
<path d="M57.1491 9.15057C56.6709 7.03108 53.6912 7.69336 53.6912 7.69336C53.6912 7.69336 51.668 11.4027 51.079 11.4909C50.4899 11.5791 52.293 7.91423 52.293 7.91423C51.1528 7.78157 48.2454 9.45965 48.2454 9.45965C48.2454 9.45965 48.4292 13.7872 47.8407 13.6979C47.2522 13.6087 47.8407 9.85591 47.8407 9.85591C46.737 10.2536 45.707 11.799 45.707 11.799C44.4195 14.3144 47.1785 16.1706 47.1785 16.1706C47.1785 16.1706 47.2152 17.6719 46.4427 19.3941C46.4427 19.3941 46.2685 19.7122 46.0911 20.2528H46.3922C46.4166 20.156 46.4436 20.0622 46.4737 19.9723C46.4737 19.9723 46.4737 19.9723 46.4737 19.9706V19.9668C46.4941 19.911 46.524 19.8317 46.5598 19.7349C46.652 19.5189 46.714 19.3593 46.7533 19.2439C47.0286 18.5658 47.4256 17.6826 47.69 17.4972C47.6626 17.4456 47.6409 17.3899 47.6257 17.3315C47.6464 17.3842 47.6676 17.4393 47.69 17.4972C48.2067 18.8218 50.7802 19.0427 52.2149 18.6895C53.6496 18.3363 53.0241 17.8504 52.2516 17.062C51.4791 16.2736 49.8604 16.4814 49.381 16.1723C48.9017 15.8632 49.6018 15.5542 50.558 15.6424C51.5142 15.7306 51.9933 16.8791 53.5379 17.0551C55.0826 17.2312 56.2601 13.7434 56.2601 13.7434C55.1931 14.1407 53.2801 13.4333 53.2067 12.9926C53.1332 12.5519 55.9658 12.5953 56.4071 12.4626C56.8483 12.33 57.6273 11.2701 57.1491 9.15057Z" fill="#DFEBFD"/>
<path opacity="0.5" d="M20.0604 44.7539C18.591 42.1399 21.9886 38.8758 21.9886 38.8758C21.9886 38.8758 27.2458 39.72 27.8785 39.0353C28.5111 38.3506 23.5011 37.2597 23.5011 37.2597C24.4521 35.6481 28.7 33.4349 28.7 33.4349C28.7 33.4349 32.445 37.7373 32.9169 36.8855C33.3888 36.0337 29.4395 33.2778 29.4395 33.2778C30.8357 32.2117 33.2019 32.3199 33.2019 32.3199C36.6891 33.0042 35.7771 38.3441 35.7771 38.3441C35.7771 38.3441 37.1013 39.802 39.3857 40.4115C39.3857 40.4115 39.8373 40.4829 40.4929 40.7592L40.2104 41.1513C40.0996 41.0923 39.9894 41.0401 39.8797 40.9949C39.8794 40.9947 39.8791 40.9947 39.8787 40.9947C39.8784 40.9947 39.8781 40.9947 39.8777 40.9949H39.8731C39.8031 40.9694 39.7035 40.9332 39.5812 40.8915C39.2993 40.8088 39.0966 40.7399 38.9554 40.6831C38.0831 40.4074 36.9107 40.0935 36.4945 40.2644C36.4737 40.1796 36.4435 40.0985 36.4049 40.0232L36.4945 40.2644C37.2098 42.1802 34.9917 45.7459 33.3245 47.2855C31.6573 48.825 31.8051 47.5532 31.8172 45.8038C31.8292 44.0544 33.5369 42.1403 33.7063 41.2261C33.8756 40.3119 32.9396 40.9336 32.1212 42.264C31.3028 43.5944 31.8932 45.2962 30.6021 47.4771C29.3109 49.6579 25.0481 47.9174 25.0481 47.9174C26.4096 46.8992 27.5664 43.7408 27.236 43.2312C26.9056 42.7216 24.2854 46.4564 23.7509 46.9078C23.2164 47.3592 21.5296 47.3682 20.0604 44.7539Z" fill="#AFCDFB"/>
<path d="M23.5313 8.38284C24.2472 5.23376 28.6748 6.22889 28.6748 6.22889C28.6748 6.22889 31.6734 11.7493 32.548 11.8827C33.4227 12.016 30.7513 6.56279 30.7513 6.56279C32.447 6.36982 36.7626 8.8742 36.7626 8.8742C36.7626 8.8742 36.4793 15.305 37.3536 15.1772C38.228 15.0493 37.3628 9.46653 37.3628 9.46653C39.0022 10.0613 40.5297 12.361 40.5297 12.361C42.4374 16.1068 38.3319 18.8538 38.3319 18.8538C38.3319 18.8538 38.2745 21.0856 39.4176 23.6479C39.4176 23.6479 39.6759 24.1213 39.938 24.9252H39.4908C39.4543 24.7812 39.4144 24.642 39.3699 24.5083C39.3701 24.5079 39.3701 24.5075 39.3701 24.5071C39.3701 24.5067 39.3701 24.5063 39.3699 24.5059L39.3682 24.5C39.3375 24.417 39.2939 24.2988 39.239 24.1555C39.103 23.834 39.0111 23.5966 38.952 23.4253C38.5444 22.4167 37.9568 21.1022 37.5638 20.8258C37.6047 20.7492 37.637 20.6665 37.6599 20.5798L37.5638 20.8258C36.795 22.793 32.9668 23.1124 30.8352 22.5832C28.7035 22.0539 29.6341 21.3334 30.7843 20.1642C31.9346 18.9951 34.3401 19.3097 35.0517 18.8517C35.7634 18.3938 34.7251 17.9321 33.3033 18.0592C31.8815 18.1864 31.1676 19.892 28.8705 20.1491C26.5735 20.4061 24.8325 15.2116 24.8325 15.2116C26.4173 15.806 29.2624 14.7637 29.3729 14.1066C29.4834 13.4495 25.2728 13.5063 24.6169 13.3079C23.961 13.1094 22.8153 11.5316 23.5313 8.38284Z" fill="#DFEBFA"/>
<path d="M20.1589 24.5152C20.3647 22.1118 23.698 22.1959 23.698 22.1959C23.698 22.1959 26.4435 25.7925 27.0957 25.7629C27.7478 25.7333 25.2476 22.1376 25.2476 22.1376C26.4661 21.7507 29.8692 22.9536 29.8692 22.9536C29.8692 22.9536 30.3095 27.6915 30.9356 27.4699C31.5617 27.2484 30.3675 23.3006 30.3675 23.3006C31.6246 23.4966 32.9714 24.9545 32.9714 24.9545C34.7417 27.4131 32.0201 30.0146 32.0201 30.0146C32.0201 30.0146 32.2024 31.6527 33.2958 33.357C33.2958 33.357 33.532 33.6651 33.8045 34.214L33.4778 34.2781C33.4368 34.1781 33.3935 34.0825 33.3478 33.991C33.347 33.9897 33.3463 33.9883 33.3457 33.9869C33.315 33.9307 33.2711 33.8491 33.2169 33.7536C33.0851 33.5386 32.9941 33.3787 32.9344 33.2619C32.5351 32.5841 31.9736 31.7113 31.659 31.5649C31.6811 31.503 31.6964 31.4379 31.7044 31.3712C31.6897 31.4329 31.6756 31.4973 31.659 31.5649C31.2956 33.1131 28.5324 33.9014 26.9226 33.8236C25.3127 33.7457 25.9199 33.0848 26.6421 32.0662C27.3643 31.0477 29.1524 30.9264 29.6275 30.4888C30.1026 30.0512 29.2962 29.8644 28.2709 30.1642C27.2455 30.464 26.8959 31.8123 25.2444 32.335C23.593 32.8577 21.7997 29.3193 21.7997 29.3193C23.0169 29.5233 24.9895 28.3486 25.0041 27.8534C25.0188 27.3583 21.9496 28.0099 21.4507 27.9603C20.9518 27.9106 19.9522 26.919 20.1589 24.5152Z" fill="#DFEBFA"/>
<path d="M49.3239 22.741C47.4006 20.9168 44.6325 24.4807 44.6325 24.4807C44.6325 24.4807 44.917 30.4095 44.342 31.0676C43.7671 31.7258 43.2742 26.0558 43.2742 26.0558C41.9586 27.004 39.9443 31.5907 39.9443 31.5907C39.9443 31.5907 43.0158 36.0736 42.3232 36.5416C41.6305 37.0095 39.7724 32.4067 39.7724 32.4067C38.8483 33.8883 38.7654 36.5395 38.7654 36.5395C39.0504 40.4808 43.2521 39.8378 43.2521 39.8378C43.2521 39.8378 44.2886 41.419 44.6013 44.012C44.6013 44.012 44.6245 44.5213 44.7927 45.2728L45.1165 44.9847C45.0786 44.8569 45.0456 44.7304 45.0183 44.6057C45.0181 44.6049 45.0181 44.604 45.0183 44.6033C45.0185 44.6014 45.0185 44.5996 45.0183 44.5977C45.0034 44.5182 44.9828 44.4041 44.9584 44.2645C44.9139 43.9441 44.8748 43.7132 44.8407 43.5513C44.6871 42.5579 44.5278 41.2271 44.6897 40.7743C44.6259 40.7451 44.5656 40.7059 44.5103 40.6579L44.6897 40.7743C46.125 41.7078 49.0423 39.4822 50.3522 37.7293C51.662 35.9765 50.6679 36.0519 49.3113 35.942C47.9547 35.8321 46.3517 37.6046 45.6318 37.7293C44.9119 37.8541 45.4596 36.8527 46.5472 36.033C47.6349 35.2132 48.9126 35.9913 50.6932 34.7033C52.4738 33.4152 51.4249 28.5353 51.4249 28.5353C50.5405 29.9826 48.0118 31.0535 47.6395 30.6483C47.2672 30.2431 50.3458 27.5816 50.7331 27.0161C51.1203 26.4507 51.2446 24.5655 49.3239 22.741Z" fill="#DFEBFA"/>
<path d="M13.9995 37.8031C13.8181 37.1043 13.0298 36.9733 12.7126 37.5984C12.6524 37.7157 12.6192 37.85 12.6164 37.9878C12.5989 38.8068 13.9449 41.9776 14.1235 42.2581C14.4487 42.7688 16.4119 43.9968 16.4119 43.9968L16.829 43.9238C16.6563 43.7866 16.4955 43.6289 16.349 43.4531C15.8447 42.8487 15.1092 41.866 14.9746 41.7302C14.7432 41.4962 14.3434 39.1293 13.9995 37.8031Z" fill="#ED985F"/>
<path d="M14.569 33.7953C14.5799 33.7426 13.6169 34.3177 13.5681 34.3811C13.1162 34.9824 13.2451 35.7673 13.5035 35.7749C13.6694 35.7797 13.6373 36.1105 13.6373 36.1105L15.4839 35.1729C15.4839 35.1729 15.2617 33.6182 14.569 33.7953Z" fill="#B5453C"/>
<path d="M14.7966 33.9166C14.7966 33.9166 14.8627 33.0531 14.0586 33.0531C14.0586 33.0531 14.3023 33.1324 14.4284 33.2909C14.4284 33.2909 13.9157 32.9297 13.3576 33.4849C12.7996 34.04 13.1464 35.4324 12.9767 35.6967C12.8071 35.961 12.1465 36.014 12.2272 36.8682C12.3079 37.7224 14.3227 38.7937 14.1947 39.5008C14.1947 39.5008 14.9847 38.1066 14.4197 37.4706C14.4197 37.4706 14.695 37.7807 14.7232 38.1518C14.7232 38.1518 14.7978 37.4282 14.4149 37.1983C14.0758 36.9937 13.7983 36.2456 13.8275 36.1119C13.8568 35.9782 14.7966 33.9166 14.7966 33.9166Z" fill="#B5453C"/>
<path d="M12.5387 52.5892L12.1391 52.5203C12.1391 52.5203 10.7954 51.2384 10.5953 48.8467C10.5743 48.6009 10.5711 48.3534 10.5858 48.1069C10.5888 48.0787 10.5838 48.0501 10.5718 48.0256V48.0256C10.5287 47.9464 10.4216 47.75 10.2767 47.466C10.1317 47.1821 9.88942 46.6632 9.62045 46.0739C9.1359 45.0123 8.57183 43.7432 8.37835 43.339C7.76175 42.0503 8.05886 41.1841 8.05886 41.1841C8.05886 41.1841 9.77891 40.9801 10.25 40.4849L10.4199 40.7992C10.4199 40.7992 10.7931 42.7795 10.7747 42.7884L10.8307 42.9952C11.1249 44.0847 11.4622 45.4465 11.6476 46.5557C11.7513 47.1797 11.8061 47.7234 11.7765 48.0939C11.7665 48.221 11.7788 48.416 11.807 48.6572C11.9732 50.0755 12.5387 52.5892 12.5387 52.5892Z" fill="#2B478B"/>
<path d="M13.3772 53.1963H11.7096C11.7096 53.1963 11.6697 52.891 11.7567 52.6598C11.8402 52.4376 11.9591 52.4307 11.7719 52.0826C11.8779 52.2136 12.2186 52.2677 12.4609 52.2287C12.4896 52.2863 12.6512 52.6719 12.7496 52.757C12.8576 52.8507 13.3436 52.8173 13.3772 53.1963Z" fill="#233862"/>
<path d="M10.8295 42.992C10.684 43.9569 10.3415 45.5609 9.61929 46.0719C9.13474 45.0102 8.57067 43.7412 8.37719 43.337C7.7606 42.0483 8.0577 41.182 8.0577 41.182C8.0577 41.182 9.77775 40.978 10.2488 40.4828L10.4187 40.7971C10.4187 40.7971 10.7919 42.7774 10.7735 42.7863L10.8295 42.992Z" fill="#233862"/>
<path d="M13.2982 38.8326C12.2823 38.5528 12.9313 36.8396 12.9902 36.8686C13.1308 36.8341 13.44 36.5378 13.7164 35.9582L13.7538 35.9971L14.3775 36.6518C14.3775 36.6518 14.234 36.9075 14.112 37.1573C14.0173 37.3534 13.9366 37.546 13.9495 37.6125C13.9986 37.6625 13.5677 38.9074 13.2982 38.8326Z" fill="#FFB27D"/>
<path d="M13.9384 37.5598C14.0448 37.8151 14.1363 38.079 14.2122 38.3496C14.3072 38.7159 14.5458 39.8812 14.5458 39.8812C14.5458 39.8812 14.054 40.5549 13.3688 40.5152C13.3688 40.5152 13.0011 39.8261 13.1306 39.2003C13.26 38.5746 13.9384 37.5598 13.9384 37.5598Z" fill="#9DB0F4"/>
<path d="M14.3764 36.655C14.3764 36.655 14.2329 36.9099 14.1109 37.1604C13.723 36.8734 13.7228 36.2969 13.7526 35.9985L14.3764 36.655Z" fill="#ED985F"/>
<path d="M14.3937 36.9837C14.3937 36.9837 13.4521 36.3548 13.7874 35.6567C14.1227 34.9586 14.2272 34.4076 14.8426 34.7798C15.4581 35.1519 15.4454 35.4982 15.3811 35.7639C15.3168 36.0295 14.6474 37.1294 14.3937 36.9837Z" fill="#FFB27D"/>
<path d="M15.5401 35.3569C15.4971 35.0468 15.3659 35.0175 15.2743 35.0382C14.9267 34.349 14.3583 34.6171 14.3583 34.6171C14.1702 34.8934 13.9079 35.0826 13.6163 35.1522C13.6163 35.1522 13.7254 35.3966 14.1757 35.5475C14.3132 35.5937 14.4694 35.5657 14.6198 35.5048C14.4188 35.6357 14.2038 35.733 13.9808 35.7942C14.5742 35.8593 15.1388 35.2084 15.1974 35.1395C15.2261 35.2405 15.2726 35.4517 15.2439 35.6061C15.2048 35.8159 15.0495 36.196 15.1446 36.2452C15.1446 36.2442 15.6047 35.8218 15.5401 35.3569Z" fill="#B5453C"/>
<path d="M6.93159 53.1963H5.26437C5.26437 53.1963 5.22418 52.891 5.31144 52.6598C5.39498 52.4376 5.52559 52.3369 5.4943 52.0682C5.60022 52.1991 5.77274 52.3456 6.01387 52.3066C6.04258 52.3642 6.20448 52.6719 6.30323 52.757C6.41231 52.8507 6.89686 52.8173 6.93159 53.1963Z" fill="#233862"/>
<path d="M13.4165 40.1907C13.2021 40.2806 12.8998 40.3285 12.5929 40.3702C12.1546 40.4274 11.7031 40.4667 11.4648 40.5804C11.3531 40.634 11.2471 40.7034 11.149 40.7871V40.7871C11.149 40.7871 11.1456 40.7899 11.1396 40.7957C11.0929 40.8363 11.0492 40.8816 11.0089 40.9312C10.9438 41.0092 10.8919 41.1017 10.8559 41.2034C10.7698 41.4615 10.8847 42.1765 10.9581 42.5672C10.9727 42.6437 10.9657 42.7239 10.9383 42.7951C10.9108 42.8664 10.8645 42.9247 10.8066 42.9611C10.6399 43.0644 10.4761 43.1599 10.3151 43.2474L10.2896 43.2612C10.2913 43.2216 10.2919 43.1819 10.2919 43.1433C10.2917 42.9781 10.2822 42.8132 10.2632 42.6496C10.2236 42.9218 10.0743 43.2157 9.93507 43.4421C7.69746 44.5199 6.13443 44.0513 6.15998 43.5144C6.2481 41.6503 7.29529 40.0649 7.29529 40.0649C9.24728 37.3386 13.1992 36.6191 13.1992 36.6191C13.1992 36.6191 13.3884 36.5919 13.6166 36.9213C13.945 37.3958 13.961 37.5195 13.961 37.5195C13.961 37.5195 14.0477 39.9264 13.4165 40.1907Z" fill="#AEC3FF"/>
<path d="M12.5927 40.3698C12.1543 40.4274 11.7028 40.4667 11.4645 40.5804C11.3678 38.8423 12.051 37.5347 12.051 37.5347C12.051 37.5347 12.4968 39.711 12.5927 40.3698Z" fill="#9DB0F4"/>
<path d="M10.9575 42.5679C10.9721 42.6444 10.9651 42.7245 10.9377 42.7958C10.9102 42.867 10.8639 42.9254 10.806 42.9617C10.6393 43.0651 10.4755 43.1605 10.3145 43.248C10.3059 43.2136 10.2982 43.1791 10.2913 43.1447C10.2629 42.9824 10.2533 42.8163 10.2626 42.6509C10.2999 41.8239 10.7681 41.2009 11.0089 40.9325C10.9438 41.0106 10.8919 41.103 10.8559 41.2047C10.7684 41.4621 10.8838 42.1771 10.9575 42.5679Z" fill="#9DB0F4"/>
<path d="M13.1989 36.6212C13.1989 36.6212 13.3711 36.3603 13.486 36.3686C13.486 36.3686 13.9562 37.1587 13.9599 37.5216C13.9611 37.5216 13.3746 36.5846 13.1989 36.6212Z" fill="#9DB0F4"/>
<path d="M17.7094 44.2674C17.7094 44.2674 17.4594 44.2729 17.4054 44.2633C17.3515 44.2536 17.2817 44.2267 17.2105 44.2236C17.1393 44.2205 17.0762 44.2477 17.0096 44.2639C17.0001 44.2662 16.9905 44.2674 16.9809 44.2674H16.5661C16.5298 44.2397 16.5001 44.2012 16.48 44.1556C16.4605 44.1173 16.4579 44.0266 16.4131 43.9969C16.1619 43.8283 16.8302 43.9238 16.8302 43.9238C16.8302 43.9238 17.2496 43.9145 17.2895 43.9493C17.3564 44.0114 17.7249 44.2436 17.7094 44.2674Z" fill="#ED985F"/>
<path d="M16.5661 44.2672C16.5661 44.2672 16.8207 44.3555 16.8898 44.4125L16.9628 44.4677C16.9628 44.4677 17.005 44.4111 16.9387 44.348C16.9033 44.3135 16.8063 44.2176 16.8034 44.1065C16.8006 43.9954 16.5132 44.092 16.5661 44.2672Z" fill="#ED985F"/>
<path d="M20.5223 52.7442C20.2345 52.7442 19.9584 52.6069 19.7548 52.3626C19.5513 52.1183 19.437 51.7869 19.437 51.4414V43.2139H21.6077V51.4414C21.6077 51.7869 21.4933 52.1183 21.2898 52.3626C21.0862 52.6069 20.8102 52.7442 20.5223 52.7442Z" fill="white"/>
<path d="M20.5223 52.3666C20.3084 52.3666 20.1033 52.2646 19.9521 52.0831C19.8009 51.9015 19.7159 51.6554 19.7159 51.3986V48.4722H21.3286V51.3986C21.3286 51.6554 21.2437 51.9015 21.0925 52.0831C20.9412 52.2646 20.7361 52.3666 20.5223 52.3666V52.3666Z" fill="#D14842"/>
<path d="M22.6776 43.2136H24.8483V51.4414C24.8483 51.7869 24.7339 52.1183 24.5304 52.3627C24.3268 52.607 24.0508 52.7442 23.7629 52.7442V52.7442C23.4751 52.7442 23.199 52.607 22.9954 52.3627C22.7919 52.1183 22.6776 51.7869 22.6776 51.4414V43.2136Z" fill="white"/>
<path d="M22.9565 47.66H24.5692V51.3987C24.5692 51.5258 24.5484 51.6517 24.5079 51.7691C24.4673 51.8865 24.4079 51.9932 24.3331 52.0831C24.2582 52.173 24.1693 52.2443 24.0715 52.2929C23.9736 52.3416 23.8688 52.3666 23.7629 52.3666V52.3666C23.549 52.3666 23.3439 52.2646 23.1927 52.0831C23.0415 51.9016 22.9565 51.6554 22.9565 51.3987V47.66V47.66Z" fill="#D14842"/>
<path d="M15.6604 46.6821C15.5291 46.6156 15.41 46.5187 15.3099 46.397C15.2098 46.2752 15.1306 46.131 15.077 45.9725C15.0233 45.814 14.9962 45.6444 14.9972 45.4733C14.9981 45.3022 15.0271 45.133 15.0826 44.9754L17.7476 37.3948L19.7475 38.4078L17.0822 45.9885C17.0268 46.1461 16.9461 46.2891 16.8447 46.4093C16.7432 46.5294 16.623 46.6244 16.491 46.6888C16.359 46.7533 16.2177 46.7858 16.0752 46.7847C15.9326 46.7835 15.7917 46.7487 15.6604 46.6821V46.6821Z" fill="white"/>
<path d="M15.8593 46.3727L15.7063 46.2951C15.5297 46.2056 15.3899 46.0355 15.3176 45.8223C15.2454 45.6091 15.2466 45.3702 15.3211 45.158L17.2444 39.6893L18.9774 39.7392L16.8075 45.9106C16.7705 46.0157 16.7167 46.111 16.649 46.1911C16.5814 46.2712 16.5012 46.3345 16.4132 46.3774C16.3251 46.4203 16.2309 46.442 16.1359 46.4412C16.0408 46.4404 15.9469 46.4171 15.8593 46.3727V46.3727Z" fill="#D14842"/>
<path d="M15.4563 45.1625C15.4563 45.1625 15.6383 45.3565 15.7767 45.3975C15.915 45.4385 16.0723 45.9144 16.0973 45.9833C16.1223 46.0522 15.9653 45.9533 15.9024 45.8376C15.8395 45.7218 15.7965 45.6763 15.7784 45.7018C15.7603 45.7273 15.7893 46.044 15.8932 46.2187C15.9971 46.3934 16.0608 46.5508 15.9853 46.5408C15.9099 46.5309 15.4615 46.3999 15.369 46.0726C15.2766 45.7452 15.3446 45.7342 15.1325 45.3975C14.9204 45.0609 15.4563 45.1625 15.4563 45.1625Z" fill="#FFB27D"/>
<path d="M13.0531 37.1987C13.0531 37.1987 11.9545 37.3289 11.8664 38.1859C11.7782 39.0428 12.9199 42.5337 13.0832 42.8497C13.3809 43.4252 15.1334 45.3975 15.1334 45.3975L15.4563 45.1625C15.4563 45.1625 14.2133 42.6364 14.021 42.4C13.7187 42.0289 13.4254 37.4953 13.0531 37.1987Z" fill="#FFB27D"/>
<path d="M13.6163 38.8358C13.6163 38.8358 13.7291 36.626 12.3199 37.1605C10.9108 37.6949 12.5387 41.4956 12.5387 41.4956C12.5387 41.4956 13.3657 41.4463 13.6582 40.5804L13.6163 38.8358Z" fill="#AEC3FF"/>
<path d="M25.7487 51.6202H15.8984V51.9869H25.7487V51.6202Z" fill="#D4E4F8"/>
<path d="M16.3597 51.8965H15.8984V53.0733H16.3597V51.8965Z" fill="#D4E4F8"/>
<path d="M25.7488 51.6202H25.2234V53.073H25.7488V51.6202Z" fill="#D4E4F8"/>
<path d="M49.9922 12.8685H31.9543C30.876 12.8685 30.0018 13.9179 30.0018 15.2123V41.9904C30.0018 43.2848 30.876 44.3342 31.9543 44.3342H49.9922C51.0705 44.3342 51.9447 43.2848 51.9447 41.9904V15.2123C51.9447 13.9179 51.0705 12.8685 49.9922 12.8685Z" fill="white"/>
<path d="M43.2989 10.8038H38.6474V13.6586H43.2989V10.8038Z" fill="white"/>
<path d="M41.3035 42.1951H40.643C40.0274 42.1951 39.5284 42.7941 39.5284 43.5331V45.7638C39.5284 46.5028 40.0274 47.1018 40.643 47.1018H41.3035C41.9191 47.1018 42.4182 46.5028 42.4182 45.7638V43.5331C42.4182 42.7941 41.9191 42.1951 41.3035 42.1951Z" fill="white"/>
<path d="M51.207 15.8608V41.2337C51.207 41.5228 51.1595 41.8091 51.0673 42.0762C50.9751 42.3434 50.8399 42.5861 50.6696 42.7905C50.4992 42.9949 50.297 43.1571 50.0744 43.2677C49.8519 43.3783 49.6133 43.4352 49.3724 43.4352H42.1673C42.0709 43.4352 41.9785 43.4813 41.9103 43.5631C41.8422 43.645 41.8039 43.756 41.8039 43.8717V45.515C41.8039 45.7659 41.7209 46.0065 41.5731 46.184C41.4253 46.3614 41.2249 46.4611 41.0159 46.4612H40.9298C40.8263 46.4613 40.7237 46.4368 40.6281 46.3893C40.5324 46.3417 40.4455 46.2721 40.3723 46.1842C40.2991 46.0963 40.2411 45.992 40.2015 45.8772C40.1619 45.7623 40.1415 45.6393 40.1415 45.515V43.9434C40.1415 43.8087 40.097 43.6794 40.0176 43.5841C39.9383 43.4888 39.8307 43.4352 39.7184 43.4352H32.5738C32.333 43.4352 32.0944 43.3783 31.8719 43.2677C31.6493 43.1571 31.4471 42.9949 31.2767 42.7905C31.1064 42.5861 30.9712 42.3434 30.879 42.0762C30.7868 41.8091 30.7393 41.5228 30.7393 41.2337V15.8608C30.7393 15.5716 30.7867 15.2853 30.8789 15.0181C30.9711 14.7509 31.1062 14.5081 31.2766 14.3036C31.447 14.0991 31.6492 13.9369 31.8718 13.8263C32.0944 13.7156 32.3329 13.6586 32.5738 13.6586H49.3724C49.859 13.6586 50.3256 13.8906 50.6697 14.3036C51.0137 14.7166 51.207 15.2768 51.207 15.8608Z" fill="#E85D52"/>
<path d="M51.207 15.8608V41.2337C51.207 41.5228 51.1595 41.8091 51.0673 42.0763C50.9751 42.3434 50.8399 42.5861 50.6696 42.7905C50.4992 42.9949 50.297 43.1571 50.0744 43.2677C49.8519 43.3783 49.6133 43.4352 49.3724 43.4352H42.1673C42.0709 43.4353 41.9785 43.4813 41.9103 43.5632C41.8422 43.645 41.8039 43.756 41.8039 43.8718V45.515C41.8039 45.7659 41.7209 46.0065 41.5731 46.184C41.4253 46.3614 41.2249 46.4612 41.0159 46.4612H40.9298C40.8263 46.4613 40.7237 46.4368 40.6281 46.3893C40.5324 46.3418 40.4455 46.2721 40.3723 46.1842C40.2991 46.0963 40.2411 45.992 40.2015 45.8772C40.1619 45.7624 40.1415 45.6393 40.1415 45.515V43.9434C40.1415 43.8087 40.097 43.6795 40.0176 43.5842C39.9383 43.4889 39.8307 43.4353 39.7184 43.4352H32.5738C32.333 43.4352 32.0944 43.3783 31.8719 43.2677C31.6493 43.1571 31.4471 42.9949 31.2767 42.7905C31.1064 42.5861 30.9712 42.3434 30.879 42.0763C30.7868 41.8091 30.7393 41.5228 30.7393 41.2337V38.0126C30.7393 38.0126 44.9627 30.9071 51.207 15.8608Z" fill="#D14842"/>
<path d="M41.0472 35.9934C39.5303 35.9935 38.0602 35.3623 36.8875 34.2072C35.7148 33.0522 34.9121 31.4448 34.616 29.6589C34.32 27.873 34.549 26.0191 35.264 24.4132C35.979 22.8072 37.1358 21.5486 38.5372 20.8517C39.9387 20.1548 41.4981 20.0627 42.9497 20.5913C44.4013 21.1198 45.6554 22.2362 46.4982 23.7502C47.341 25.2642 47.7204 27.0821 47.5717 28.8942C47.4231 30.7064 46.7555 32.4006 45.6829 33.6881C45.0756 34.4212 44.3531 35.0024 43.5574 35.3981C42.7617 35.7938 41.9085 35.9961 41.0472 35.9934V35.9934ZM41.0472 20.9781C39.6699 20.978 38.3353 21.5512 37.2706 22.6C36.2059 23.6487 35.4771 25.1082 35.2084 26.7296C34.9396 28.3511 35.1476 30.0342 35.7968 31.4923C36.446 32.9503 37.4963 34.093 38.7687 34.7257C40.0411 35.3584 41.4569 35.442 42.7749 34.9621C44.0929 34.4822 45.2314 33.4686 45.9966 32.094C46.7618 30.7194 47.1062 29.0688 46.9713 27.4236C46.8363 25.7783 46.2302 24.2401 45.2563 23.0711C44.7049 22.4055 44.0489 21.8777 43.3264 21.5185C42.6039 21.1592 41.8292 20.9756 41.0472 20.9781V20.9781Z" fill="white"/>
<path d="M45.2816 26.8397H42.1165V23.0404H39.9776V26.8397H36.8128V29.4071H39.9776V33.2064H42.1165V29.4071H45.2816V26.8397Z" fill="white"/>
<path d="M58.9765 37.1267C58.6321 38.3672 58.2348 39.4288 57.7996 39.9763C57.3736 40.5122 57.0768 41.2027 56.8707 41.9211C56.3365 43.7818 56.4079 45.8231 56.4079 45.8231L50.5376 40.1845C50.5376 40.1845 48.7912 33.1296 48.9508 31.773C49.183 29.7986 48.5899 26.2195 48.6706 25.4297C48.7306 24.8439 48.5845 21.9946 48.5876 21.7807C48.5876 21.6883 48.7412 21.4881 48.9844 21.3944C49.179 21.3189 49.5708 21.4171 49.7789 21.8492C50.8316 24.0345 50.7397 25.7802 50.7641 25.8463C51.3974 27.5937 51.3095 29.1067 51.7189 29.34C51.7344 29.3486 51.7545 29.3341 51.7789 29.2986C52.2094 28.6691 53.9992 21.454 54.381 21.1666C54.5369 21.0488 55.3493 22.4416 56.2874 24.1903C56.6264 24.8226 56.9818 25.5017 57.3282 26.1737C57.3925 26.2984 57.4565 26.423 57.52 26.5475C57.5782 26.6616 57.6252 26.7833 57.6601 26.9104C57.6664 26.9324 57.6724 26.9552 57.6776 26.9793C57.9374 28.0371 57.4887 29.3858 57.8211 30.0519C57.8299 30.0704 57.8395 30.0883 57.8498 30.1056C57.9031 30.1917 57.9688 30.2656 58.0439 30.3237C58.3131 30.5384 58.709 30.617 59.0311 30.6425C59.2127 30.6568 59.3949 30.6568 59.5765 30.6425C59.5765 30.6425 59.8434 34.0124 58.9765 37.1267Z" fill="#FFB27D"/>
<path d="M57.0038 53.2711L49.6431 53.3321H49.2717C49.915 47.0653 50.5379 40.1868 50.5379 40.1868C50.5379 40.1868 56.2644 39.1593 56.5807 43.2684C56.5807 43.2684 56.1315 48.4742 57.0038 53.2711Z" fill="#FFB27D"/>
<path d="M57.4227 18.82L56.6642 21.9071L55.9202 24.9363C55.8677 25.0941 55.7795 25.1775 55.6684 25.2054C55.3197 25.2977 54.7433 24.8735 54.3296 24.6754L54.2877 24.6554C54.0253 24.5289 53.8153 24.2828 53.7036 23.9709C53.5918 23.6591 53.5875 23.3068 53.6915 22.9911L55.0076 19.0285L55.398 17.8528C55.5035 17.5379 55.7086 17.2858 55.9683 17.1518C56.2281 17.0177 56.5215 17.0124 56.7845 17.1371L56.8264 17.1571C57.0885 17.2838 57.2983 17.5296 57.41 17.8411C57.5216 18.1526 57.5262 18.5045 57.4227 18.82V18.82Z" fill="#FFB27D"/>
<path d="M48.5887 21.9002L48.6852 23.5734C48.6852 23.5734 49.001 23.6024 49.1525 23.4263C49.3041 23.2502 49.0765 21.8037 48.5887 21.9002Z" fill="#FFC197"/>
<g opacity="0.5">
<path d="M57.8495 30.1031L57.5398 30.4239C57.514 30.4509 57.4867 30.4757 57.4582 30.4984C57.069 30.8133 56.5305 30.6844 56.2179 30.181L56.1808 30.1221C55.8456 29.5825 55.8918 28.8093 56.2839 28.4034L57.3276 27.3228L57.4034 27.2439L57.5699 27.0716C57.6035 27.0367 57.6393 27.005 57.677 26.9768C57.9368 28.0347 57.4881 29.3833 57.8205 30.0494C57.8294 30.0679 57.8391 30.0859 57.8495 30.1031V30.1031Z" fill="#EFA26F"/>
<path d="M58.8913 31.7533L57.989 32.5034C57.7152 32.7316 57.334 32.6123 57.1425 32.2385L57.071 32.1006C56.8796 31.7275 56.947 31.2351 57.2212 31.0073L58.0436 30.3226C58.3128 30.5373 58.7087 30.6159 59.0308 30.6414L59.0411 30.661C59.2329 31.0331 59.1651 31.5255 58.8913 31.7533Z" fill="#EFA26F"/>
<path d="M57.6595 26.9093L56.8985 27.5206C56.3755 27.9413 55.6679 27.7556 55.3257 27.1071L55.1509 26.7749C54.8225 26.1547 54.9459 25.3225 55.4196 24.8853L55.8114 24.5703L56.2859 24.1892C56.6249 24.8215 56.9803 25.5007 57.3268 26.1726C57.3911 26.2973 57.455 26.4219 57.5185 26.5465C57.577 26.6604 57.6243 26.7822 57.6595 26.9093V26.9093Z" fill="#EFA26F"/>
</g>
<path d="M59.2733 28.6529L59.085 28.8338L57.8208 30.0495C57.7916 30.0778 57.761 30.1041 57.7292 30.128C57.5144 30.2907 57.2573 30.3529 57.0068 30.3029C56.7563 30.2528 56.5299 30.0939 56.3706 29.8565L56.3315 29.7983C56.1613 29.5414 56.0827 29.2141 56.1128 28.8879C56.1429 28.5617 56.2793 28.263 56.4923 28.0571L57.6721 26.9238L57.7582 26.8411L57.9465 26.6606C58.1603 26.4558 58.433 26.3612 58.7048 26.3973C58.9767 26.4335 59.2255 26.5975 59.3967 26.8535L59.4358 26.9117C59.6059 27.1688 59.6842 27.4963 59.6538 27.8226C59.6234 28.1488 59.4866 28.4473 59.2733 28.6529V28.6529Z" fill="#FFB27D"/>
<path d="M58.113 29.146C57.9018 29.3486 57.5183 29.7114 57.2961 29.8417C57.2332 29.8785 57.1 29.8827 56.9467 29.7772C56.833 29.6956 56.7352 29.5858 56.6597 29.455C56.6143 29.3829 56.5752 29.3053 56.5431 29.2235C56.5072 29.1277 56.4829 29.0263 56.4708 28.9223C56.4659 28.8735 56.4707 28.824 56.4847 28.7778C56.4987 28.7316 56.5216 28.69 56.5515 28.6563V28.6563C56.761 28.4186 57.0483 28.116 57.3153 27.9062C57.4999 27.7608 57.7336 27.789 57.8547 27.9751L57.9121 28.0626L58.2035 28.5106C58.3249 28.6987 58.2856 28.9809 58.113 29.146Z" fill="#FFD3B6"/>
<path d="M58.113 29.1459C57.9017 29.3486 57.5182 29.7114 57.2961 29.8416C57.2332 29.8785 57.1 29.8827 56.9467 29.7772C56.9255 29.7483 56.9048 29.7169 56.8838 29.6825C56.8385 29.6103 56.7994 29.5327 56.7673 29.4509C56.7316 29.3551 56.7074 29.2537 56.6952 29.1497C56.6903 29.101 56.6951 29.0515 56.709 29.0054C56.723 28.9592 56.7458 28.9177 56.7756 28.8841V28.8841C56.9855 28.646 57.2728 28.3438 57.5398 28.1339C57.5937 28.0896 57.6552 28.0604 57.7198 28.0485C57.7844 28.0366 57.8504 28.0422 57.9129 28.065L58.2043 28.513C58.3249 28.6987 58.2855 28.9809 58.113 29.1459Z" fill="#FFC197"/>
<path d="M59.2724 31.3399L58.258 32.1324C58.1092 32.2481 57.9283 32.2884 57.7548 32.2445C57.5814 32.2006 57.4294 32.0761 57.3322 31.8981L57.2576 31.7603C57.1612 31.5817 57.1277 31.3646 57.1642 31.1564C57.2007 30.9482 57.3043 30.7658 57.4525 30.649L58.4669 29.8565C58.6157 29.7408 58.7966 29.7005 58.9701 29.7444C59.1436 29.7883 59.2955 29.9128 59.3927 30.0908L59.4676 30.2286C59.564 30.4072 59.5976 30.6244 59.561 30.8326C59.5244 31.0408 59.4207 31.2232 59.2724 31.3399V31.3399Z" fill="#FFB27D"/>
<path d="M58.6532 31.507C58.4667 31.6514 58.1285 31.9098 57.9382 31.9973C57.8693 32.0294 57.7085 32.0125 57.5573 31.825C57.477 31.7231 57.4141 31.6032 57.3724 31.4722C57.3503 31.3955 57.338 31.3152 57.3359 31.2341C57.336 31.1948 57.3438 31.156 57.3587 31.121C57.3737 31.086 57.3954 31.0558 57.4221 31.0329V31.0329C57.6098 30.8606 57.8656 30.6435 58.0981 30.4967C58.2585 30.3951 58.446 30.4309 58.5312 30.5839L58.5921 30.6928L58.7747 31.0208C58.8588 31.1724 58.8062 31.3892 58.6532 31.507Z" fill="#FFD3B6"/>
<path d="M58.6533 31.507C58.4667 31.6513 58.1286 31.9098 57.9382 31.9973C57.8693 32.0293 57.7086 32.0125 57.5573 31.825C57.5282 31.7697 57.5042 31.7108 57.4856 31.6493C57.4634 31.5727 57.4511 31.4925 57.4491 31.4115C57.4492 31.3722 57.4571 31.3335 57.472 31.2985C57.487 31.2635 57.5086 31.2333 57.5352 31.2103C57.5352 31.2103 57.5352 31.2103 57.5352 31.2103C57.7229 31.038 57.9787 30.8209 58.2112 30.6745C58.3441 30.5901 58.4957 30.6004 58.5922 30.6927L58.7747 31.0208C58.8588 31.1724 58.8063 31.3891 58.6533 31.507Z" fill="#FFC197"/>
<path d="M58.5511 26.1082L58.5298 26.1275L57.1927 27.1409C56.6045 27.5867 55.83 27.4269 55.4704 26.7859L55.2864 26.4572C54.9419 25.8418 55.1006 24.9973 55.6346 24.5369L56.0761 24.2023L56.9717 23.5235C57.5596 23.0776 58.3343 23.2375 58.694 23.8784L58.878 24.2068C59.2179 24.8139 59.0678 25.6437 58.5511 26.1082Z" fill="#FFB27D"/>
<path d="M57.7519 25.8783L57.1465 26.5354L57.1425 26.5385C57.1167 26.5584 57.0899 26.5766 57.0624 26.593C57.0512 26.5999 57.0394 26.6061 57.028 26.6123C57.0231 26.6147 57.0181 26.6167 57.013 26.6181C56.9944 26.6244 56.9747 26.625 56.9558 26.62C56.9369 26.615 56.9193 26.6045 56.9045 26.5894C56.8898 26.5742 56.8784 26.555 56.8713 26.5333C56.8643 26.5117 56.8618 26.4882 56.8641 26.4651C56.8849 26.2577 56.8442 26.0482 56.7492 25.8731L56.7125 25.8042C56.7125 25.8042 56.7125 25.8025 56.7125 25.8022L56.5928 25.582C56.5013 25.4127 56.3671 25.2829 56.2098 25.2116C56.1915 25.2029 56.1731 25.1954 56.1544 25.1885C56.1159 25.1744 56.0814 25.1474 56.055 25.1108C56.0287 25.0741 56.0115 25.0293 56.0055 24.9814C55.9995 24.9335 56.0049 24.8846 56.0211 24.8403C56.0373 24.7959 56.0636 24.758 56.097 24.7309L56.1011 24.7274L56.8405 24.2857C57.0159 24.1479 57.2487 24.2543 57.363 24.4649L57.4993 24.7157L57.7895 25.2505C57.9026 25.4628 57.9273 25.7412 57.7519 25.8783Z" fill="#FFD3B6"/>
<path d="M57.7519 25.8783L57.1465 26.5354L57.1425 26.5385C57.1267 26.5489 57.0776 26.5792 57.013 26.6181C56.9944 26.6244 56.9747 26.6251 56.9558 26.6201C56.9368 26.615 56.9192 26.6045 56.9045 26.5894C56.8898 26.5743 56.8784 26.555 56.8713 26.5333C56.8643 26.5117 56.8618 26.4882 56.864 26.4651C56.8848 26.2578 56.8442 26.0482 56.7492 25.8732L56.7125 25.8042C56.7125 25.8042 56.7125 25.8025 56.7125 25.8022L56.5928 25.582C56.5012 25.4127 56.3671 25.283 56.2098 25.2116C56.224 25.1548 56.2545 25.106 56.296 25.0737L56.3003 25.0703L57.0394 24.6286C57.1873 24.5131 57.3753 24.5703 57.4987 24.7164L57.7889 25.2512C57.9026 25.4628 57.9273 25.7412 57.7519 25.8783Z" fill="#FFC197"/>
<path d="M52.0837 30.8843C52.0837 30.8843 53.8296 33.7764 54.28 35.1171C54.8871 36.923 54.267 39.5501 54.267 39.5501C54.267 39.5501 55.518 37.1318 55.0966 35.562C54.5196 33.4101 53.3737 32.6279 52.0837 30.8843Z" fill="#EFA26F"/>
<path d="M43.0339 50.8897H48.8261V51.5482H43.0339C42.4262 51.5469 41.8438 51.2566 41.4141 50.7408C40.9844 50.225 40.7425 49.5259 40.7415 48.7964V46.4612H41.29V48.7964C41.2906 49.3514 41.4745 49.8835 41.8014 50.2759C42.1283 50.6683 42.5716 50.8891 43.0339 50.8897Z" fill="white"/>
<path d="M53.2729 46.1815V48.7964C53.2719 49.5259 53.03 50.2252 52.6002 50.741C52.1705 51.2568 51.5879 51.547 50.9802 51.5482H46.906V50.8897H50.9802C51.4426 50.8892 51.8859 50.6685 52.2129 50.276C52.5399 49.8836 52.7238 49.3515 52.7244 48.7964V46.1815H53.2729Z" fill="white"/>
<path d="M43.0339 51.1203H48.8262V51.3177H43.0339C42.4771 51.3169 41.9432 51.051 41.5495 50.5783C41.1557 50.1057 40.9342 49.4649 40.9335 48.7964V46.4612H41.098V48.7964C41.0986 49.4125 41.3028 50.0032 41.6657 50.4388C42.0286 50.8745 42.5207 51.1195 43.0339 51.1203V51.1203Z" fill="#D14842"/>
<path d="M53.0809 46.1815V48.7964C53.0801 49.4649 52.8586 50.1057 52.4648 50.5784C52.071 51.051 51.5371 51.3169 50.9802 51.3177H46.906V51.1203H50.9802C51.4935 51.1195 51.9855 50.8745 52.3484 50.4388C52.7114 50.0032 52.9155 49.4125 52.9161 48.7964V46.1815H53.0809Z" fill="#D14842"/>
<path d="M55.1104 44.6319H51.0511C50.8693 44.6319 50.7219 44.8088 50.7219 45.0271V46.3062C50.7219 46.5245 50.8693 46.7014 51.0511 46.7014H55.1104C55.2922 46.7014 55.4397 46.5245 55.4397 46.3062V45.0271C55.4397 44.8088 55.2922 44.6319 55.1104 44.6319Z" fill="white"/>
<path d="M54.0546 44.6319H52.1072V46.7014H54.0546V44.6319Z" fill="#D4E4F8"/>
<path d="M77.0789 53.044H0.821278C0.769912 53.044 0.728271 53.094 0.728271 53.1558V53.213C0.728271 53.2748 0.769912 53.3248 0.821278 53.3248H77.0789C77.1303 53.3248 77.1719 53.2748 77.1719 53.213V53.1558C77.1719 53.094 77.1303 53.044 77.0789 53.044Z" fill="#2E3552"/>
<path d="M29.0289 53.34H30.2541C30.2327 53.1613 30.2001 52.9848 30.1565 52.8121C30.1378 52.7395 30.1145 52.6686 30.087 52.6002C29.9679 52.3149 29.2109 52.4968 29.2109 52.4968C29.2109 52.4968 29.1409 52.5692 29.0858 52.8455C29.0552 53.0081 29.0362 53.1735 29.0289 53.34V53.34Z" fill="#233862"/>
<path d="M31.2766 30.8768C31.2766 30.8768 32.2526 31.0835 32.4736 31.7727C32.6947 32.4618 33.9411 43.6392 33.9411 43.6392C33.9411 43.6392 33.3236 44.225 31.9983 44.0154C30.6729 43.8059 31.2766 30.8768 31.2766 30.8768Z" fill="#AEC3FF"/>
<path d="M32.7297 52.8758C32.7332 53.076 32.7541 53.2652 32.8158 53.34H35.2389C35.2082 53.2345 35.1209 53.0764 34.872 53.0278C34.5896 52.973 34.1489 52.8097 33.8914 52.483C33.7978 52.3687 33.7322 52.2256 33.7017 52.0695C33.5869 51.46 32.759 52.2559 32.759 52.2559C32.7383 52.4616 32.7286 52.6687 32.7297 52.8758V52.8758Z" fill="#233862"/>
<path d="M33.7735 52.5795C33.5025 52.6829 32.9849 52.9999 32.6562 52.851C32.4438 52.7549 31.256 48.6307 31.1787 46.8268C31.1674 46.6463 31.1472 46.4669 31.1182 46.2893C31.0478 45.8238 30.9247 45.1842 30.7829 44.4782C30.4028 42.5868 29.8887 40.2203 29.8999 39.4639C29.9171 38.2903 32.8141 39.2179 32.8141 39.2179C32.8141 39.2179 33.015 40.1827 33.0532 41.5751C33.1319 44.3424 33.3483 49.018 33.9365 52.2628C33.9466 52.3305 33.9356 52.4002 33.9055 52.4586C33.8754 52.5171 33.8284 52.5601 33.7735 52.5795V52.5795Z" fill="#233862"/>
<path d="M31.7626 39.4698L30.2309 52.7942C30.2309 52.7942 29.5583 52.9889 29.0353 52.8331C29.0353 52.8331 28.5869 45.7466 28.6242 44.0333C28.6615 42.3201 28.3024 39.4505 28.7063 39.1324C29.1102 38.8144 31.7626 39.4698 31.7626 39.4698Z" fill="#2B478B"/>
<path d="M28.5123 31.487C28.5123 31.487 30.1218 30.2379 31.2763 30.8767C31.4603 30.9801 31.6702 31.2626 31.8218 31.4625C32.2391 32.0138 33.0544 40.7822 33.0544 40.7822C33.0544 40.7822 30.7398 41.7233 28.5137 40.4632L28.5123 31.487Z" fill="white"/>
<path d="M31.3682 30.845C31.3682 30.845 32.9975 31.6465 33.2182 32.2626C33.439 32.8787 34.1561 36.6604 34.1561 37.1039C34.1561 37.5474 32.9074 37.2031 32.7061 36.4878C32.5394 35.8938 31.9762 34.0692 31.6793 32.9149L31.3682 30.845Z" fill="#AEC3FF"/>
<path d="M31.0297 31.4557C30.6741 31.5397 30.1516 31.4501 29.769 31.1476C29.9412 30.6524 30.0124 30.2614 30.0377 30.0084C30.0377 29.995 30.0403 29.9819 30.0414 29.9695C30.0511 29.8829 30.0526 29.7953 30.0457 29.7083H30.9643C30.9643 29.7083 31.2158 29.8461 31.2158 29.9419C31.2158 29.9926 31.2158 30.0415 31.2158 30.088C31.2175 30.2152 31.2218 30.3258 31.2272 30.4209C31.2333 30.5741 31.2491 30.7265 31.2743 30.8768C31.2743 30.8768 31.3888 31.3723 31.0297 31.4557Z" fill="#FFB27D"/>
<path d="M31.2296 30.4214C30.5329 30.5832 30.1284 30.1258 30.0377 30.0075C30.0248 29.9906 30.0182 29.9806 30.0182 29.9806C30.0257 29.9764 30.0334 29.9723 30.0414 29.9685C30.2998 29.8423 30.8894 29.9426 31.2184 30.0872C31.2198 30.2155 31.2241 30.3262 31.2296 30.4214Z" fill="#E2915A"/>
<path d="M29.8101 29.527C29.9347 30.3313 30.7993 30.3047 31.173 30.2541C31.2781 30.2403 31.3452 30.2241 31.3452 30.2241C31.4638 30.1862 31.5301 29.9619 31.5608 29.6683C31.6217 29.0874 31.5448 28.2342 31.4629 28.0161C31.3398 27.6877 31.1081 27.3328 30.2375 27.5888C29.3669 27.8448 29.6505 28.4964 29.8101 29.527Z" fill="#FFB27D"/>
<path d="M31.4942 27.5674C31.3751 27.3697 31.1228 27.1281 30.8937 26.9792C30.4014 26.6595 29.7713 26.9892 29.7687 26.9906C29.0574 27.3659 28.8717 28.0192 29.2488 29.0364C29.6476 30.1125 30.0271 29.9912 30.0271 29.9912C30.0271 29.9912 29.9467 29.9312 29.9539 29.596C29.9539 29.5767 29.9539 29.5615 29.9556 29.547C29.9579 29.5131 29.9538 29.479 29.9436 29.4472C29.9333 29.4155 29.9172 29.3869 29.8964 29.3637C29.808 29.269 29.765 28.983 29.839 28.903C29.928 28.8069 30.0535 28.9237 30.0937 29.0136C30.1013 29.0291 30.1114 29.0426 30.1236 29.0531C30.1357 29.0637 30.1495 29.0711 30.1641 29.075C30.1787 29.0789 30.1939 29.0791 30.2085 29.0757C30.2232 29.0722 30.2372 29.0652 30.2495 29.055C30.4711 28.8868 30.3273 28.5509 30.5386 28.3455C30.7499 28.1401 31.1793 28.311 31.4968 28.1487C31.9122 27.963 31.5838 27.7163 31.4942 27.5674Z" fill="#233862"/>
<path d="M31.5932 44.4596C31.4531 44.503 31.3145 44.5385 31.1764 44.5657C31.0544 44.5909 30.9333 44.6091 30.8116 44.6215C30.1226 44.6935 29.4308 44.5771 28.6222 44.299C28.4402 44.2363 28.2517 44.1654 28.0567 44.0864C28.036 44.0778 28.1098 41.511 28.195 38.8633C28.2036 38.5897 28.2128 38.3154 28.2217 38.0429C28.2254 37.928 28.2291 37.8132 28.2329 37.6983C28.3104 35.3552 28.3871 33.2416 28.4034 33.1279C28.4402 32.8701 28.4749 32.6503 28.5125 32.4601C28.6227 31.9053 28.7597 31.601 29.0579 31.3395C29.0866 31.313 29.3255 31.1672 29.5359 31.0428C29.7104 30.9395 29.8651 30.8481 29.8651 30.8481C29.9343 30.8891 30.0176 31.0797 30.1048 31.3478C30.265 31.8412 30.4378 32.5972 30.5581 33.1616C30.5583 33.1626 30.5583 33.1637 30.5581 33.1647C30.6356 33.5293 30.6913 33.8132 30.7071 33.8945C30.7338 34.0324 30.7694 34.2984 30.811 34.6595C30.8684 35.1505 30.9356 35.8173 31.007 36.574C31.0143 36.6518 31.0217 36.7305 31.0292 36.81C31.0375 36.9006 31.0461 36.9926 31.0547 37.0857C31.0573 37.1153 31.0602 37.1453 31.0627 37.1749C31.0914 37.4747 31.1181 37.7841 31.1457 38.0984C31.1687 38.3582 31.4971 38.5463 31.5189 38.8103C31.5321 38.9657 31.5593 40.3974 31.5944 40.8543C31.6211 41.1803 31.6033 44.3062 31.5932 44.4596Z" fill="#AEC3FF"/>
<path d="M29.2179 34.0717C29.2179 34.0772 29.1622 36.4399 30.6425 36.7266C32.1229 37.0133 31.1394 37.0898 31.1394 37.0898C31.1394 37.0898 28.355 36.9475 28.3079 36.8593C28.2608 36.7711 29.2179 34.0717 29.2179 34.0717Z" fill="#9DB0F4"/>
<path d="M30.4688 37.7411C30.4688 37.7411 30.4401 37.7645 30.3876 37.8058L30.385 37.8079C30.1591 37.9802 29.4885 38.453 28.5126 38.7693C28.4101 38.8037 28.3041 38.8341 28.1951 38.8634C28.2037 38.5898 28.2129 38.3155 28.2218 38.0429C28.0984 38.0322 27.9758 38.0119 27.8546 37.9823C27.8586 37.9478 27.8627 37.9103 27.8664 37.8741C27.9907 37.8131 28.1141 37.7542 28.233 37.6983C28.33 37.6529 28.4239 37.6094 28.5126 37.5691C28.9144 37.3865 29.2107 37.2625 29.2107 37.2625L30.3977 37.7138L30.4688 37.7411Z" fill="#9DB0F4"/>
<path d="M30.7829 37.7014C30.7829 37.7014 30.6304 37.7473 30.3876 37.8048H30.385C29.9375 37.913 29.1848 38.0643 28.5125 38.056C28.4135 38.056 28.3159 38.0501 28.2217 38.0412C28.0984 38.0304 27.9758 38.0102 27.8546 37.9805C27.6089 37.9182 27.4031 37.8127 27.2684 37.648C26.2686 36.4255 27.8138 32.0373 28.1394 31.6104C28.5186 31.1118 29.2112 30.9371 29.5936 30.8771L29.6395 30.8699C29.7741 30.8506 29.8603 30.8468 29.8651 30.8464C29.8651 30.8464 29.835 30.9622 29.7848 31.1586C29.7652 31.2344 29.7429 31.3226 29.7179 31.4208C29.4831 32.344 29.0289 34.1585 28.83 35.1819C28.7568 35.5564 28.7178 35.8249 28.7356 35.9055C28.8136 36.2549 29.6214 36.4348 30.1333 36.5144C30.3468 36.5488 30.509 36.5629 30.5452 36.5664H30.5526L30.5813 36.7121L30.6523 37.0616L30.722 37.4061L30.7829 37.7014Z" fill="#AEC3FF"/>
<path d="M33.5719 39.8047L30.1376 39.631L30.8343 34.4934L34.2686 34.6671L33.5719 39.8047Z" fill="#233862"/>
<path d="M30.553 36.5681C30.553 36.5681 31.2215 36.5123 31.2551 36.6991C31.3332 37.1353 30.681 37.4933 30.4689 37.4688C30.2567 37.4444 30.3991 36.5388 30.553 36.5681Z" fill="#FFB27D"/>
<path d="M34.0812 35.7105C34.0812 35.7105 33.4416 35.4693 33.373 35.6416C33.2128 36.044 33.7792 36.5719 33.9896 36.6084C34.2 36.645 34.2362 35.725 34.0812 35.7105Z" fill="#FFB27D"/>
<path d="M29.9346 30.5904C29.9346 30.5904 29.6189 30.6562 29.4753 30.9005C29.4753 30.9005 30.5627 33.1864 30.5578 33.1658C30.553 33.1451 30.2036 30.8709 29.9346 30.5904Z" fill="#9DB0F4"/>
<path d="M31.2442 30.6211C31.3366 30.6631 31.5143 30.8816 31.5542 31.0022L31.6794 32.9149C31.6794 32.9149 31.4124 31.5111 31.2775 30.8768C31.2578 30.7935 31.2467 30.7076 31.2442 30.6211V30.6211Z" fill="#9DB0F4"/>
<path d="M31.9727 34.5515C31.9727 34.5515 32.0014 34.4087 32.1564 34.4252C32.3114 34.4418 33.1898 34.4942 33.1898 34.4942C33.1898 34.4942 33.3592 34.4908 33.3434 34.6212L31.9727 34.5515Z" fill="#C65447"/>
</g>
<defs>
<clipPath id="clip0_1280_405">
<rect width="80" height="53.34" fill="white"/>
</clipPath>
</defs>
</svg>
