<svg width="30" height="30" viewBox="0 0 30 30" fill="none" xmlns="http://www.w3.org/2000/svg">
<path d="M12.7125 6.25002C12.8993 6.24939 13.0838 6.2906 13.2525 6.37064C13.4212 6.45067 13.5699 6.5675 13.6875 6.71252L19.725 14.2125C19.9089 14.4362 20.0094 14.7167 20.0094 15.0063C20.0094 15.2958 19.9089 15.5764 19.725 15.8L13.475 23.3C13.2628 23.5553 12.9579 23.7158 12.6274 23.7463C12.2969 23.7768 11.9678 23.6747 11.7125 23.4625C11.4572 23.2503 11.2967 22.9455 11.2662 22.6149C11.2358 22.2844 11.3378 21.9553 11.55 21.7L17.1375 15L11.7375 8.30002C11.5847 8.11654 11.4876 7.89312 11.4577 7.65618C11.4279 7.41924 11.4665 7.17871 11.5691 6.96305C11.6716 6.74739 11.8338 6.56563 12.0365 6.43927C12.2391 6.3129 12.4737 6.24723 12.7125 6.25002Z" fill="black"/>
</svg>
