<svg width="27" height="22" viewBox="0 0 27 22" fill="none" xmlns="http://www.w3.org/2000/svg">
<path d="M24.6 17L23.4559 16.0573L21.3636 17.7813V12.3333H19.7455V17.7813L17.6531 16.0573L16.5091 17L20.5545 20.3333L24.6 17Z" fill="black"/>
<path d="M14.8909 19H6.80001V2.99999H13.2727V6.99999C13.274 7.35329 13.4449 7.69181 13.7481 7.94163C14.0513 8.19145 14.4621 8.33227 14.8909 8.33332H19.7455V10.3333H21.3636V6.99999C21.3665 6.91237 21.3463 6.82529 21.3044 6.74473C21.2625 6.66417 21.1999 6.59204 21.1209 6.53332L15.4573 1.86665C15.386 1.80155 15.2985 1.74995 15.2007 1.71543C15.103 1.6809 14.9973 1.66426 14.8909 1.66665H6.80001C6.37123 1.66771 5.96038 1.80852 5.65719 2.05834C5.354 2.30816 5.1831 2.64669 5.18182 2.99999V19C5.1831 19.3533 5.354 19.6918 5.65719 19.9416C5.96038 20.1915 6.37123 20.3323 6.80001 20.3333H14.8909V19ZM14.8909 3.26665L19.4218 6.99999H14.8909V3.26665Z" fill="black"/>
</svg>
