<svg width="200" height="200" viewBox="0 0 200 200" fill="none" xmlns="http://www.w3.org/2000/svg">
<path d="M0 100C0 155.228 44.7715 200 100 200C155.228 200 200 155.228 200 100C200 44.7715 155.228 0 100 0C44.7715 0 0 44.7715 0 100Z" fill="#226786"/>
<path d="M99.0185 45.3149C88.1278 31.7019 68.2074 29.9112 55.7037 40.4741C44.1592 50.2278 41.4926 69.7149 51.4444 81.5852C52.2389 82.5315 53.0889 83.4371 53.9389 84.3297C67.6537 98.8272 81.3574 113.333 95.05 127.848H102.62L126.719 102.841C132.873 96.4531 139.036 90.0766 145.209 83.7112C150.783 77.9704 153.12 70.5278 152.791 62.5482C152.496 55.4223 149.867 48.3778 145.174 42.9741C142.882 40.3206 140.107 38.1251 136.998 36.5037C124.928 30.2575 108.8 33.6019 99.0185 45.3149Z" fill="#F9F8EC"/>
<path d="M98.1111 89.2222C97.348 89.2217 96.6018 88.9968 95.9656 88.5753C95.3295 88.1538 94.8313 87.5544 94.5333 86.8518L89.3482 74.7018L85.5685 78.8944C85.2039 79.299 84.7583 79.6225 84.2606 79.8439C83.7629 80.0653 83.2243 80.1797 82.6796 80.1796H69.8333C68.8019 80.1796 67.8128 79.7699 67.0835 79.0406C66.3542 78.3113 65.9445 77.3221 65.9445 76.2907C65.9445 75.2593 66.3542 74.2702 67.0835 73.5409C67.8128 72.8116 68.8019 72.4018 69.8333 72.4018H80.9445L87.6445 64.9759C88.0818 64.491 88.6341 64.1239 89.2506 63.9087C89.8671 63.6935 90.5279 63.6369 91.172 63.7443C91.8161 63.8517 92.4228 64.1195 92.9362 64.5231C93.4495 64.9267 93.8529 65.4531 94.1093 66.0537L97.8759 74.8796L102.157 63.4815C102.409 62.8122 102.84 62.2253 103.404 61.7852C103.967 61.345 104.641 61.0687 105.351 60.9866C106.061 60.9045 106.78 61.0198 107.429 61.3198C108.078 61.6198 108.632 62.0928 109.03 62.687L115.57 72.4648H128.285C129.317 72.4648 130.306 72.8745 131.035 73.6038C131.764 74.3331 132.174 75.3223 132.174 76.3537C132.174 77.3851 131.764 78.3742 131.035 79.1036C130.306 79.8329 129.317 80.2426 128.285 80.2426H113.498C112.859 80.2427 112.23 80.0855 111.667 79.7848C111.103 79.4841 110.622 79.0492 110.267 78.5185L106.781 73.3093L101.75 86.7C101.477 87.4269 100.993 88.0554 100.359 88.5045C99.7259 88.9537 98.9726 89.203 98.1963 89.2204L98.1111 89.2222Z" fill="#226786"/>
<path d="M81.9796 154.65C82.7704 154.65 83.2389 154.28 83.3629 153.711L86.8185 137.369H87.0667L90.7204 154.65H91.7074V154.896H88.25V154.65H89.2389L88.2018 149.835H84.4241L83.4111 154.65H84.35V154.896H81.9796V154.65ZM84.4741 149.589H88.1481L86.3222 140.874L84.4741 149.589Z" fill="#F9F8EC"/>
<path d="M93.7037 154.65V137.861H92.7167V137.615H96.6667C97.7134 137.618 98.7164 138.035 99.4565 138.775C100.197 139.515 100.614 140.518 100.617 141.565V150.946C100.614 151.993 100.197 152.996 99.4565 153.736C98.7164 154.476 97.7134 154.893 96.6667 154.896H92.7185V154.65H93.7037ZM99.1352 141.565C99.1352 139.515 98.0241 137.861 96.6667 137.861H95.1852V154.65H96.6667C98.0241 154.65 99.1352 152.994 99.1352 150.946V141.565Z" fill="#F9F8EC"/>
<path d="M106.222 137.615V137.861H105.235V154.65H106.222V154.896H102.767V154.65H103.754V137.861H102.767V137.615H106.222Z" fill="#F9F8EC"/>
<path d="M110.418 147.491V154.65H111.406V154.896H107.95V154.65H108.937V137.861H107.95V137.615H111.9C112.947 137.618 113.95 138.035 114.69 138.775C115.43 139.515 115.847 140.518 115.85 141.565V143.541C115.847 144.587 115.43 145.59 114.69 146.331C113.95 147.071 112.947 147.488 111.9 147.491H110.418ZM110.418 137.861V147.243H111.9C113.257 147.243 114.368 145.589 114.368 143.539V141.565C114.368 139.515 113.257 137.861 111.9 137.861H110.418Z" fill="#F9F8EC"/>
</svg>
