<svg width="60" height="60" viewBox="0 0 60 60" fill="none" xmlns="http://www.w3.org/2000/svg">
<path d="M49.8278 27.8517C49.21 27.8517 49.1056 28.2594 49.0128 28.7667C48.4233 31.9128 47.1145 34.7556 45.1795 37.2861C43.4133 39.5939 41.235 41.4528 38.6356 42.7861C38.4478 42.8828 38.2317 42.9394 38.1089 43.135C37.6817 43.5067 37.1589 43.6528 36.6222 43.7683C33.5967 43.6233 30.7089 42.905 27.9428 41.6806C24.255 40.0476 21.3706 37.5048 19.2895 34.0522C18.9189 33.4372 18.9256 33.4239 19.6439 33.2328C20.5495 33.0739 21.4183 32.8439 22.1478 32.2244C23.5367 31.0389 23.4639 29.1133 21.9772 28.0417C21.5133 27.7083 20.96 27.5678 20.4739 27.2867C20.3683 26.995 20.6861 26.8067 20.6578 26.5333C20.6678 25.9722 20.6606 25.4122 20.6578 24.8528C20.6517 24.5272 20.4956 24.3039 20.1767 24.2356C19.8356 24.1628 19.59 24.3178 19.4372 24.6244C19.4024 24.7132 19.3342 24.7848 19.2472 24.8239C19.1272 25.4072 19.3261 26.01 19.1467 26.5928C19.1406 26.6128 19.1706 26.4817 19.2472 26.5222C19.485 26.685 19.5517 26.8967 19.4328 27.1622C18.5928 27.3111 17.7845 27.585 16.9572 27.785C16.67 27.6811 16.6461 27.4089 16.5783 27.1739C16.3033 26.2183 16.1678 25.235 16.0122 24.2567C15.9272 23.7206 16.0039 23.1906 16.3222 22.7483C17.0332 21.7734 17.5969 20.6991 17.995 19.56C18.0273 19.4669 18.0925 19.3889 18.1783 19.3406C18.4811 19.2028 18.7839 19.305 19.0867 19.3406C20.0989 19.4517 21.11 19.5761 22.1283 19.63C23.1233 19.7189 24.1167 19.8272 25.1178 19.8339C25.3883 19.8339 25.7122 19.7556 25.8722 20.0989C25.725 20.2317 25.5606 20.1544 25.4039 20.1283C28.5283 20.2461 31.6561 20.2111 34.7845 20.145C34.6117 20.1478 34.4217 20.2217 34.2539 20.1278C34.295 19.8217 34.5522 19.85 34.7472 19.8422C37.0067 19.775 39.2522 19.5511 41.4939 19.2756C41.61 19.262 41.7276 19.2714 41.84 19.3033C42.1283 19.3994 42.1561 19.6761 42.2433 19.9056C43.4567 23.1033 45.7313 25.0776 49.0672 25.8283C49.2006 25.8578 49.3372 25.8761 49.42 26.0056C49.555 26.3239 49.545 26.6633 49.4695 26.9806C49.3756 27.3794 49.49 27.6506 49.8278 27.8517Z" fill="#F4D7B8"/>
<path d="M25.87 20.1111C25.4494 19.9111 25.0005 20.0356 24.5655 20C23.7472 19.9295 22.9216 19.9372 22.1111 19.775C21.38 19.395 20.9922 18.71 20.6044 18.0372C19.6894 16.4506 19.2889 14.6978 19.1689 12.9022C18.9685 10.0541 19.4066 7.19723 20.4511 4.54001C20.5578 4.26834 20.6911 4.0089 20.8078 3.74223C22.2366 3.16612 23.7344 2.82723 25.2466 2.61501C27.1278 2.35167 29.0244 2.14945 30.9328 2.24945C34.5183 2.43834 38.0439 2.91945 41.2983 4.58279C42.9828 5.44283 44.4872 6.61706 45.7305 8.04223C45.8316 8.15723 45.965 8.25445 45.9561 8.43112C45.5622 8.90612 44.9744 8.80056 44.4639 8.91834C44.2211 8.9739 43.9639 8.96056 43.7355 9.08501C43.5072 9.20945 43.3261 9.39445 43.3616 9.68334C43.3955 9.96112 43.5839 10.1278 43.8405 10.21C44.0628 10.2839 44.3016 10.2728 44.5311 10.2372C45.3328 10.1133 46.1389 10.0045 46.9005 9.70167C48.4216 12.18 49.1405 14.8906 49.2416 17.78C48.7183 18.3145 47.9933 18.3761 47.3322 18.5445C45.665 18.9779 43.9704 19.298 42.26 19.5028C42.161 19.5144 42.0614 19.4871 41.9822 19.4267C40.7239 19.4739 39.4855 19.7161 38.2272 19.7906C37.0289 19.8611 35.8339 20.0028 34.6311 20.0128C34.495 20.0128 34.3572 20.0128 34.2455 20.1111C33.5161 20.285 32.7655 20.08 32.035 20.2333C30.7194 20.2389 29.4035 20.2389 28.0872 20.2333C27.3555 20.0833 26.6022 20.2833 25.87 20.1111Z" fill="#87D1CE"/>
<path d="M39.8822 44.3156C41.6267 45.5378 43.0489 47.0728 44.1867 48.8622C45.5628 51.0289 46.4172 53.385 46.6694 55.9489C46.7717 56.9839 46.5611 57.4361 45.8305 57.7739C45.6083 57.8772 45.3794 57.88 45.1461 57.88C35.092 57.88 25.038 57.88 14.9839 57.88C13.8639 57.88 13.3128 57.1878 13.4311 56.0756C13.7544 53.0426 14.8226 50.3052 16.6355 47.8633C17.6489 46.4994 18.8217 45.2828 20.2361 44.32C21.9655 45.2828 23.7861 46.0006 25.74 46.3589C25.895 46.4 25.9805 46.5183 26.0589 46.6456C26.9739 48.3633 27.8172 50.1194 28.765 51.8211C29.4283 53.0128 30.6444 53.0572 31.3205 51.8767C32.2928 50.1667 33.1433 48.3889 34.0555 46.6478C34.1328 46.52 34.2189 46.4017 34.3739 46.3589C36.3114 45.9908 38.1734 45.3001 39.8822 44.3156Z" fill="#87D1CE"/>
<path d="M18.1339 19.4283C17.95 20.3506 17.5933 21.2206 17.03 21.9528C16.3411 22.8478 15.9539 23.7511 16.2589 24.8917C16.5106 25.8311 16.5172 26.8328 16.9706 27.725C17.0061 27.9022 16.8594 27.9705 16.7667 28.0744C16.505 28.3344 16.2206 28.5744 16.0239 28.8922C15.3383 30.0033 15.605 31.4267 16.6794 32.2839C17.3656 32.8317 18.1494 33.1494 19.0383 33.1728C19.2567 33.1844 19.4878 33.1483 19.6533 33.345C19.5267 33.5072 19.32 33.41 19.1072 33.4994C23.0689 40.1744 29.185 43.0406 36.6239 43.6289C36.4167 44.1333 35.8789 44.0411 35.5067 44.2483C31.9117 45.3039 28.3167 45.34 24.7206 44.2567C23.9517 44.0483 23.225 43.7233 22.4856 43.4344C22.325 43.3717 22.1594 43.2989 22.0994 43.1089C20.0644 42.132 18.2121 40.8131 16.6233 39.2094C14.84 37.4139 13.4126 35.297 12.4167 32.9705C11.7617 31.4511 11.2594 29.8844 11.0078 28.2483C10.9283 27.7344 10.4639 28.0883 10.2883 27.8467C10.6217 27.6455 10.7589 27.3844 10.6611 26.9772C10.55 26.5244 10.61 26.0483 10.5294 25.5883C10.4811 25.3106 10.585 25.0911 10.8567 24.9728C11.8983 24.5022 12.9633 24.0933 13.9439 23.4789C15.4583 22.5289 16.7028 21.3439 17.5678 19.7733C17.6522 19.6206 17.725 19.4583 17.8922 19.3722C17.9335 19.3565 17.9786 19.3534 18.0216 19.3634C18.0647 19.3734 18.1037 19.396 18.1339 19.4283Z" fill="#E9CDAF"/>
<path d="M18.1339 19.4283L17.9217 19.4183C17.2722 19.5322 16.6544 19.3111 16.0294 19.2161C14.6323 19.0112 13.252 18.7046 11.8994 18.2989C11.5378 18.1878 11.1439 18.1056 10.8817 17.7822C10.9094 16.6661 11.0105 15.56 11.3322 14.4833C11.5513 14.7554 11.8608 14.9397 12.2044 15.0028C13.5567 15.2639 14.9011 15.5706 16.2794 15.6722C16.395 15.6806 16.51 15.7111 16.6267 15.6995C16.985 15.6639 17.2933 15.5295 17.3155 15.1267C17.3372 14.7378 17.085 14.5156 16.7178 14.46C16.1039 14.3695 15.4861 14.2978 14.8744 14.1945C13.7633 14.0072 12.6522 13.8339 11.5872 13.4556C12.0217 11.9483 12.5961 10.5072 13.5489 9.24167C13.7817 9.08334 13.9983 9.22167 14.2155 9.28834C14.7711 9.45945 15.3111 9.6739 15.8861 9.77279C16.5961 9.89501 16.9733 9.76612 17.0683 9.37001C17.1717 8.94112 16.8522 8.63779 16.1489 8.48112C15.5872 8.35501 15.0089 8.27556 14.5078 7.95723C16.21 5.95723 18.3411 4.5989 20.8111 3.7439C21.0128 3.88112 20.8605 4.02167 20.8033 4.14723C20.0172 5.89279 19.6294 7.73445 19.4144 9.62834C19.1717 11.75 19.3033 13.8311 19.885 15.8878C20.2933 17.3496 21.0602 18.6864 22.1161 19.7767C20.9933 19.7695 19.885 19.6056 18.7744 19.4645C18.5594 19.435 18.3455 19.4383 18.1339 19.4283Z" fill="#73C5BF"/>
<path d="M10.8817 17.7822C13.0767 18.5744 15.3589 18.9783 17.6561 19.3183C17.7479 19.3417 17.8368 19.3752 17.9211 19.4183C16.5928 22.0972 14.3422 23.7 11.6494 24.7861C11.4339 24.8728 11.2167 24.9572 11.0006 25.0433C10.1361 25.2028 9.64389 24.8067 9.70556 23.9461C9.76111 23.175 9.81667 22.4022 9.90389 21.6328C9.93056 21.4056 10.0678 21.2439 10.1622 21.0583C10.3433 19.9533 10.5067 18.845 10.8817 17.7822Z" fill="#4A515A"/>
<path d="M42.2016 19.4217C43.205 19.2344 44.2089 19.0511 45.2111 18.8583C46.58 18.5956 47.9333 18.2722 49.2411 17.7817C49.6233 18.8422 49.7755 19.9528 49.9633 21.0561C50.13 21.3 50.1922 21.5717 50.2411 21.8639C50.3522 22.5344 50.3422 23.2133 50.4239 23.8861C50.5216 24.6883 50.0716 25.1456 49.2483 25.175C46.4966 24.3083 44.1672 22.8489 42.5739 20.3733C42.3889 20.0872 42.1405 19.81 42.2016 19.4217Z" fill="#4A515A"/>
<path d="M10.1622 21.0583C10.0645 22.0139 9.95558 22.9683 9.87169 23.925C9.80169 24.7261 10.1395 25.0483 11.0006 25.0428C10.8561 25.1728 10.5561 25.2094 10.6617 25.4972C10.8634 26.0383 10.6872 26.615 10.8572 27.1639C10.9995 27.6217 10.8372 27.9183 10.2889 27.8467C8.75947 27.705 7.4378 26.4639 7.2678 25.01C7.07114 23.3317 7.97725 21.8272 9.50836 21.2878L10.1622 21.0583Z" fill="#D0B79C"/>
<path d="M49.1161 25.0411C50.0278 25.0517 50.3383 24.7256 50.25 23.8144C50.1622 22.8944 50.0583 21.9756 49.9611 21.0561C50.7322 21.3172 51.4861 21.5894 52.0366 22.2533C52.91 23.3056 53.1228 24.4755 52.6305 25.7283C52.1383 26.9811 51.2022 27.7222 49.8278 27.8517C49.3105 27.8967 49.1105 27.6817 49.2783 27.1739C49.4089 26.7767 49.3339 26.3689 49.3494 25.9661C49.2478 25.6667 49.2844 25.3267 49.1161 25.0411Z" fill="#D0B79C"/>
<path d="M11.5873 13.455C11.7734 13.3156 11.9539 13.4128 12.1384 13.4628C13.6311 13.8694 15.1534 14.1117 16.69 14.2717C17.1506 14.3194 17.5645 14.7161 17.5417 15.1261C17.5184 15.5528 17.0145 15.9561 16.5384 15.8961C14.969 15.7068 13.4105 15.4369 11.8689 15.0872C11.5356 15.0094 11.2839 14.8867 11.3328 14.4833C11.3665 14.1299 11.4523 13.7834 11.5873 13.455Z" fill="#67B2AC"/>
<path d="M22.0994 43.1111L24.6461 44.1011C25.1744 44.7933 25.6594 45.5056 25.7472 46.4078C25.6989 46.4717 25.6439 46.5228 25.555 46.5022C23.7611 46.0878 22.0333 45.4961 20.4233 44.5894C20.3122 44.5261 20.2439 44.4483 20.2361 44.3206C20.8072 43.8389 21.4622 43.4878 22.0994 43.1111Z" fill="#73C5BF"/>
<path d="M35.5317 44.0867C35.89 43.92 36.3028 43.885 36.6239 43.6294L38.1072 43.1333C38.7028 43.5222 39.34 43.8467 39.885 44.3156C39.7661 44.7389 39.3339 44.7911 39.0372 44.9428C37.6411 45.6556 36.1533 46.1317 34.6261 46.485C34.515 46.51 34.44 46.5028 34.3767 46.4106C34.3448 46.3733 34.3246 46.3276 34.3185 46.279C34.3124 46.2305 34.3206 46.1812 34.3422 46.1372C34.6733 45.4167 35.0039 44.6939 35.5317 44.0867Z" fill="#73C5BF"/>
<path d="M46.9006 9.70389C46.8933 9.90611 46.7411 9.94666 46.5872 9.98833C45.8033 10.1994 45.0128 10.3817 44.1983 10.4133C43.5944 10.4367 43.1606 10.1028 43.1539 9.65667C43.1472 9.21055 43.5667 8.81667 44.1444 8.78833C44.7615 8.75357 45.3708 8.63374 45.955 8.43222C46.3794 8.77778 46.6306 9.24666 46.9006 9.70389Z" fill="#74C6C0"/>
<path d="M14.505 7.95555C15.2411 8.11888 15.9889 8.24277 16.7083 8.46C17.1322 8.58722 17.3428 8.96 17.2256 9.42833C17.1144 9.87722 16.7756 10.0239 16.35 9.99444C15.3683 9.92666 14.485 9.485 13.5489 9.24111C13.8034 8.76841 14.1255 8.33535 14.505 7.95555Z" fill="#67B2AC"/>
<path d="M40.6805 27.1111C41.8472 27.1144 42.9066 27.4156 43.7589 28.2589C45.0366 29.5239 44.9372 31.2889 43.5283 32.4211C41.8505 33.7694 39.1466 33.6322 37.6544 32.1233C36.4594 30.9144 36.5655 29.0767 37.9105 28.0333C38.42 27.6378 38.9905 27.3422 39.6411 27.2372C39.9877 27.1983 40.3205 27.0428 40.6805 27.1111Z" fill="#F38B75"/>
<path d="M16.7311 27.9533L16.9706 27.7233C17.755 27.3561 18.5617 27.0767 19.4456 27.1089C19.8028 27.0533 20.1373 27.1883 20.4823 27.2367C21.5934 27.4772 22.5167 28.0189 23.0306 29.0617C23.7223 30.4656 23.0595 32.1111 21.5439 32.8333C20.9495 33.1167 20.3217 33.3233 19.655 33.3444L18.9517 33.3072C18.24 32.3628 17.8717 31.2517 17.4517 30.1667C17.1717 29.4444 16.9756 28.69 16.7311 27.9533Z" fill="#F38B75"/>
<path d="M32.3978 25.0306C32.62 25.1206 32.79 25.2578 32.8422 25.5072C32.7905 26.3994 32.7705 27.2911 32.8522 28.1833C32.6739 29.6122 31.5289 30.6367 30.0928 30.6506C28.6428 30.665 27.4667 29.635 27.2733 28.1811C27.3437 27.3286 27.3418 26.4717 27.2678 25.6194C27.2678 25.3061 27.4728 25.1511 27.7228 25.0317C27.7633 24.9974 27.8109 24.9725 27.8622 24.9589C27.9135 24.9453 27.9672 24.9432 28.0194 24.9528C29.3805 25.0069 30.7418 25.0069 32.1033 24.9528C32.1551 24.9435 32.2083 24.9457 32.2591 24.9591C32.31 24.9725 32.3573 24.9969 32.3978 25.0306Z" fill="#4A515A"/>
<path d="M49.1161 25.0411C49.6506 25.2344 49.43 25.6178 49.3494 25.9661C48.2278 25.935 47.2383 25.4761 46.2883 24.9517C44.1722 23.7817 42.8006 21.9844 42.0222 19.7156C41.9998 19.6215 41.987 19.5255 41.9839 19.4289L42.2017 19.4217C43.5061 22.0289 45.6794 23.6339 48.3072 24.7144C48.5761 24.825 48.8467 24.9322 49.1161 25.0411Z" fill="#E9CDAF"/>
<path d="M40.6806 27.1111C40.3517 27.3 40.0139 27.4178 39.6411 27.2372C39.5245 27.05 39.2889 26.9306 39.3133 26.6633C39.3822 26.0062 39.3822 25.3438 39.3133 24.6867C39.3639 24.2422 39.6789 24.0544 40.0639 24.0367C40.5739 24.0133 40.7861 24.3933 40.9233 24.8144C41.0275 25.3825 41.0275 25.9647 40.9233 26.5328C40.8422 26.725 40.7613 26.9178 40.6806 27.1111Z" fill="#4B525A"/>
<path d="M20.4822 27.2367C20.1094 27.4156 19.7728 27.2989 19.4455 27.1089C19.3633 26.9141 19.2813 26.7189 19.1994 26.5233C19.0855 25.9631 19.0855 25.3858 19.1994 24.8256C19.3361 24.3989 19.5455 24.0189 20.0566 24.0372C20.4455 24.0511 20.7594 24.2356 20.8078 24.685C20.7316 25.3423 20.7316 26.0061 20.8078 26.6633C20.8383 26.9333 20.5961 27.0489 20.4822 27.2367Z" fill="#4B525B"/>
<path d="M25.87 20.1111L28.0739 20.1272C29.3954 20.2158 30.7213 20.2158 32.0428 20.1272L34.2472 20.1111H35.1667C31.7539 20.4722 28.3406 20.3522 24.9228 20.1111H25.87Z" fill="#F5D7B7"/>
<path d="M27.735 24.9522C27.8 24.7922 27.9405 24.7978 28.0772 24.7978H32.0383C32.175 24.7978 32.3161 24.7922 32.3833 24.95C30.8367 25.0805 29.2818 25.0812 27.735 24.9522Z" fill="#F8DFBD"/>
<path d="M27.735 24.9522C29.2845 24.8894 30.8339 24.8967 32.3834 24.9489C32.3895 24.9761 32.3945 25.0044 32.3978 25.0305L32.1517 25.0494C30.7561 25.1128 29.3608 25.1128 27.9656 25.0494L27.7206 25.0311C27.7238 25.0045 27.7286 24.9782 27.735 24.9522Z" fill="#8B857D"/>
<path d="M32.85 28.1833C32.67 27.2917 32.6994 26.3994 32.84 25.5072C32.9328 26.3989 32.9111 27.2906 32.85 28.1833Z" fill="#3E4752"/>
<path d="M27.2656 25.6194C27.4327 26.465 27.4346 27.3349 27.2711 28.1811C27.209 27.3284 27.2071 26.4724 27.2656 25.6194Z" fill="#404954"/>
<path d="M40.9233 26.5333C40.9233 25.9604 40.9233 25.3876 40.9233 24.815C40.9247 24.7958 40.9296 24.7769 40.9378 24.7595C40.9579 24.7349 40.9801 24.7121 41.0039 24.6911C41.0783 25.3442 41.0783 26.0036 41.0039 26.6567C40.9895 26.6517 40.9672 26.6506 40.9628 26.6406C40.9478 26.6055 40.9346 26.5698 40.9233 26.5333Z" fill="#FFE0BD"/>
<path d="M19.2 24.8256C19.2 25.3915 19.2 25.9574 19.2 26.5233C19.1722 26.5761 19.0928 26.69 19.0889 26.6344C19.0639 25.9939 19.0733 25.3522 19.0756 24.7106C19.0756 24.7044 19.1161 24.69 19.1183 24.6928C19.1483 24.7361 19.1739 24.7811 19.2 24.8256Z" fill="#FEE1BF"/>
<path d="M39.3128 24.685C39.4755 25.3338 39.4755 26.0128 39.3128 26.6617C39.2555 26.004 39.2555 25.3426 39.3128 24.685Z" fill="#424A55"/>
<path d="M20.8078 26.6633C20.6381 26.0148 20.6381 25.3335 20.8078 24.685C20.8667 25.3431 20.8667 26.0052 20.8078 26.6633Z" fill="#3D4752"/>
<path d="M28.1717 13.3483C28.0161 13.1261 27.7828 13.2128 27.58 13.21C26.8989 13.1989 26.2172 13.21 25.5356 13.2022C25.0283 13.1955 24.7522 12.9928 24.7861 12.4167C24.8283 11.6989 24.8056 10.9761 24.7928 10.2561C24.785 9.78777 24.9906 9.57944 25.4594 9.58944C26.1817 9.60221 26.9039 9.57277 27.6211 9.59888C28.1139 9.61721 28.2878 9.37666 28.2878 8.93221C28.2878 8.20999 28.2994 7.4911 28.2878 6.77055C28.2789 6.30499 28.4739 6.08777 28.9467 6.09499C29.7061 6.1061 30.4656 6.09944 31.2244 6.09499C31.6322 6.09499 31.8356 6.28444 31.8311 6.69999C31.8256 7.4011 31.8256 8.10222 31.8311 8.80333C31.8378 9.48166 31.9422 9.58555 32.6056 9.58777C33.2689 9.58999 33.9306 9.60499 34.5917 9.58333C35.1106 9.5661 35.3456 9.76833 35.3294 10.3017C35.3078 11.0022 35.2895 11.7061 35.3345 12.4039C35.3745 13.02 35.0617 13.1989 34.5372 13.2022C33.9144 13.2061 33.2911 13.2022 32.6678 13.2022C31.8561 13.2022 31.8345 13.2283 31.83 14.0689C31.83 14.6922 31.8094 15.3161 31.8361 15.9383C31.8578 16.435 31.6828 16.6494 31.1645 16.6272C30.4422 16.5967 29.72 16.5955 29.0033 16.6272C28.4761 16.6511 28.2556 16.4683 28.2811 15.925C28.3139 15.2844 28.2928 14.6405 28.2867 13.9978C28.2867 13.8083 28.3422 13.605 28.1928 13.4383C28.1557 13.425 28.1402 13.4065 28.1461 13.3828C28.1539 13.3611 28.1617 13.3483 28.1717 13.3483Z" fill="white"/>
<path d="M46.5445 14.6955C46.6083 15.0967 46.3328 15.2928 45.98 15.4233C45.3572 15.6544 44.6978 15.7089 44.0472 15.7867C43.6456 15.8344 43.2411 15.8211 42.8345 15.8872C42.4161 15.9544 41.9795 15.8872 41.7528 15.4078C41.5739 15.0294 41.69 14.7411 41.9633 14.4689C42.1139 14.3183 42.2845 14.2772 42.4895 14.2722C43.5332 14.2464 44.5716 14.1139 45.5883 13.8767C46.1289 13.7511 46.535 14.0928 46.5445 14.6955Z" fill="#74C6C0"/>
<path d="M32.0428 20.1278C31.8889 20.2983 31.6845 20.2339 31.4995 20.235C30.5391 20.2406 29.5784 20.2406 28.6172 20.235C28.4322 20.235 28.2284 20.2983 28.0739 20.1272L32.0428 20.1278Z" fill="#F4D7B8"/>
<path d="M34.1667 46.6667C33.2778 48.547 32.3228 50.3917 31.3017 52.2006C30.7683 53.1389 29.3472 53.1367 28.8172 52.2006C27.7969 50.3913 26.8433 48.5467 25.9567 46.6667C26.1028 46.3133 26.385 46.5039 26.5933 46.5372C27.8389 46.7383 29.0894 46.8617 30.3517 46.8356C31.4167 46.8128 32.4788 46.7131 33.5294 46.5372C33.7367 46.5 34.0211 46.31 34.1667 46.6667Z" fill="white"/>
<path d="M34.1666 46.6667C33.2777 46.645 32.425 46.8972 31.5411 46.9444C30.5564 46.9956 29.5697 46.9956 28.585 46.9444C27.7016 46.8983 26.845 46.6544 25.9594 46.6667L25.7494 46.4072L24.6494 44.1006C26.2846 44.5828 27.9762 44.8478 29.6805 44.8889C31.6672 44.9478 33.6205 44.6383 35.5322 44.0878L34.3739 46.4117L34.1666 46.6667Z" fill="#E5E5E5"/>
<path d="M38.76 53.205C38.2145 53.205 37.6689 53.2133 37.1239 53.205C36.5483 53.1933 36.1728 52.8617 36.1733 52.3883C36.1739 51.915 36.5489 51.5794 37.125 51.5739C38.2161 51.5639 39.3072 51.5639 40.3983 51.5739C40.9567 51.5778 41.3717 51.9194 41.3928 52.3606C41.4145 52.8172 40.9778 53.1939 40.3967 53.205C39.8511 53.2122 39.3056 53.205 38.76 53.205Z" fill="#73C5BF"/>
<path d="M16.7311 27.9533C16.9405 27.9567 16.9633 28.125 17.0055 28.2706C17.4789 29.8989 18.0094 31.5044 18.8816 32.9744C18.9372 33.0667 18.9289 33.1967 18.95 33.3078C17.4194 33.2522 15.7194 32.1411 15.5194 30.6022C15.3705 29.4533 15.8372 28.6111 16.7311 27.9533Z" fill="#E6846E"/>
<path d="M27.9656 25.05H32.1517C31.8695 25.2478 31.5478 25.1506 31.2506 25.14C30.1556 25.1 29.0556 25.27 27.9656 25.05Z" fill="#404954"/>
</svg>
